<?xml version="1.0" encoding="UTF-8" standalone="no"?>
<!-- Generator: Adobe Illustrator 19.0.0, SVG Export Plug-In . SVG Version: 6.00 Build 0)  -->

<svg
   xmlns:dc="http://purl.org/dc/elements/1.1/"
   xmlns:cc="http://creativecommons.org/ns#"
   xmlns:rdf="http://www.w3.org/1999/02/22-rdf-syntax-ns#"
   xmlns:svg="http://www.w3.org/2000/svg"
   xmlns="http://www.w3.org/2000/svg"
   xmlns:sodipodi="http://sodipodi.sourceforge.net/DTD/sodipodi-0.dtd"
   xmlns:inkscape="http://www.inkscape.org/namespaces/inkscape"
   version="1.1"
   id="Layer_1"
   x="0px"
   y="0px"
   viewBox="0 0 473.935 473.935"
   style="enable-background:new 0 0 473.935 473.935;"
   xml:space="preserve"
   sodipodi:docname="moon-svgrepo-com(10).svg"
   inkscape:version="0.92.3 (2405546, 2018-03-11)"><metadata
   id="metadata48"><rdf:RDF><cc:Work
       rdf:about=""><dc:format>image/svg+xml</dc:format><dc:type
         rdf:resource="http://purl.org/dc/dcmitype/StillImage" /><dc:title></dc:title></cc:Work></rdf:RDF></metadata><defs
   id="defs46" /><sodipodi:namedview
   pagecolor="#ffffff"
   bordercolor="#666666"
   borderopacity="1"
   objecttolerance="10"
   gridtolerance="10"
   guidetolerance="10"
   inkscape:pageopacity="0"
   inkscape:pageshadow="2"
   inkscape:window-width="1851"
   inkscape:window-height="1025"
   id="namedview44"
   showgrid="false"
   showguides="false"
   inkscape:zoom="2.8168791"
   inkscape:cx="189.08436"
   inkscape:cy="206.4359"
   inkscape:window-x="69"
   inkscape:window-y="27"
   inkscape:window-maximized="1"
   inkscape:current-layer="Layer_1" />
<circle
   style="fill:#344E5D;"
   cx="236.967"
   cy="236.967"
   r="236.967"
   id="circle2" />
<path
   style="fill:#717171;"
   d="M117.473,249.738c0,37.953,17.714,71.738,45.302,93.62c-13.594-28.333-21.216-60.089-21.216-93.62  c0-33.53,7.622-65.283,21.216-93.623C135.191,178.001,117.473,211.793,117.473,249.738z"
   id="path4" />
<radialGradient
   id="SVGID_1_"
   cx="16.6847"
   cy="524.9733"
   r="30.3637"
   gradientTransform="matrix(3.7418 0 0 -3.7418 186.5668 2214.0767)"
   gradientUnits="userSpaceOnUse">
	<stop
   offset="0.818"
   style="stop-color:#D8D5DB"
   id="stop6" />
	<stop
   offset="1"
   style="stop-color:#D8D5DB"
   id="stop8" />
</radialGradient>
<path
   style="fill:url(#SVGID_1_);"
   d="M162.779,343.358c20.382,16.172,46.136,25.856,74.177,25.856  c65.986,0,119.475-53.489,119.475-119.475c0-65.983-53.489-119.475-119.475-119.475c-28.041,0-53.796,9.684-74.177,25.852  c-13.594,28.34-21.216,60.093-21.216,93.623C141.563,283.268,149.185,315.025,162.779,343.358z"
   id="path11" />
<g
   id="g13">
</g>
<g
   id="g15">
</g>
<g
   id="g17">
</g>
<g
   id="g19">
</g>
<g
   id="g21">
</g>
<g
   id="g23">
</g>
<g
   id="g25">
</g>
<g
   id="g27">
</g>
<g
   id="g29">
</g>
<g
   id="g31">
</g>
<g
   id="g33">
</g>
<g
   id="g35">
</g>
<g
   id="g37">
</g>
<g
   id="g39">
</g>
<g
   id="g41">
</g>
<path
   style="fill:#717171;fill-opacity:1;stroke-width:0.35500282"
   d="m 228.66717,368.79281 c -3.95657,-0.32807 -8.9238,-0.95214 -12.4251,-1.56108 -17.4559,-3.03587 -34.94901,-10.48608 -49.39567,-21.03731 l -3.95532,-2.88879 -1.86037,-4.08925 c -10.30083,-22.64212 -16.65855,-47.50115 -18.6595,-72.95979 -0.72952,-9.28194 -0.53212,-29.64235 0.36828,-37.9853 2.59,-23.99846 8.36648,-45.69853 17.79398,-66.84537 2.10514,-4.72203 2.48553,-5.33878 3.98598,-6.46271 17.54359,-13.14124 36.40324,-20.87069 57.65308,-23.62858 6.04094,-0.78401 18.1683,-1.05843 24.06728,-0.54459 16.08498,1.4011 30.6401,5.4404 44.10222,12.23913 32.01768,16.16979 54.91977,45.34808 62.95671,80.20968 4.0782,17.68993 3.88764,37.58103 -0.52887,55.20322 -6.31475,25.19636 -20.49185,47.50021 -40.61861,63.90247 -18.47465,15.05587 -41.3525,24.26401 -65.37895,26.31448 -3.91284,0.33393 -14.72756,0.41384 -18.10514,0.13379 z"
   id="path3915"
   inkscape:connector-curvature="0" /><path
   style="fill:#717171;fill-opacity:1;stroke-width:0.35500282"
   d="m 141.92906,244.95642 c -0.0373,-0.78101 -0.14537,-2.05902 -0.24006,-2.84002 l -0.17216,-1.42001 0.37176,1.18476 c 0.20446,0.65162 0.31249,1.92963 0.24006,2.84002 -0.13033,1.63805 -0.13241,1.64049 -0.1996,0.23525 z"
   id="path3917"
   inkscape:connector-curvature="0" /><path
   style="fill:#717171;fill-opacity:1;stroke-width:0.35500282"
   d="m 222.09962,367.93561 c -20.14792,-2.63045 -39.19681,-10.22673 -55.57358,-22.1615 l -3.58426,-2.61207 -2.19051,-4.95034 c -10.08443,-22.78982 -16.07479,-46.30832 -18.16223,-71.30594 -0.47299,-5.66415 -0.48057,-28.44014 -0.0115,-34.55194 1.85833,-24.21319 9.27124,-52.66496 18.82245,-72.24307 l 2.07826,-4.26004 3.21938,-2.30751 c 17.88011,-12.81575 38.11579,-20.49248 59.05436,-22.40322 6.76762,-0.61757 22.40906,-0.22241 28.47538,0.71939 28.0122,4.34894 52.44697,17.38403 70.92586,37.83645 17.44547,19.30864 28.18884,43.78315 30.45127,69.37118 0.53328,6.03133 0.23065,21.11511 -0.53126,26.47958 -4.35344,30.65186 -19.74049,57.90205 -43.51292,77.06064 -17.64074,14.21696 -39.28105,23.09478 -62.65799,25.70509 -5.45959,0.60963 -20.91136,0.39246 -26.80271,-0.3767 z"
   id="path3919"
   inkscape:connector-curvature="0" /><path
   style="fill:#717171;fill-opacity:1;stroke-width:0.35500282"
   d="m 141.94855,250.06877 c -0.0438,-3.04575 -0.1526,-6.79991 -0.24187,-8.34256 l -0.1623,-2.80484 0.34796,2.48502 c 0.19138,1.36676 0.30022,5.12092 0.24187,8.34257 l -0.1061,5.85754 z"
   id="path3921"
   inkscape:connector-curvature="0" /><path
   style="fill:#717171;fill-opacity:1;stroke-width:0.35500282"
   d="m 141.94565,249.92646 c -0.0442,-2.53827 -0.1515,-6.21255 -0.23847,-8.16507 l -0.15813,-3.55002 0.34545,3.01752 c 0.19,1.65964 0.29731,5.33392 0.23847,8.16506 l -0.10699,5.14755 z"
   id="path3923"
   inkscape:connector-curvature="0" /><path
   style="fill:#717171;fill-opacity:1;stroke-width:0.35500282"
   d="m 223.16463,368.11109 c -19.92997,-2.38068 -39.00152,-9.80504 -55.76287,-21.70789 l -4.39484,-3.12094 -1.90514,-4.22744 c -10.1859,-22.6021 -16.4601,-47.00594 -18.5338,-72.08823 -0.54772,-6.62481 -0.57766,-28.18754 -0.048,-34.5409 2.08322,-24.98693 8.96779,-51.48048 18.752,-72.16237 l 2.02398,-4.27831 2.86536,-2.0648 c 18.01852,-12.98436 38.26984,-20.79235 58.95579,-22.73069 5.88696,-0.55162 19.8181,-0.45701 25.20738,0.1712 22.95955,2.67632 43.28702,11.15059 61.41331,25.60246 5.2756,4.20617 13.82168,12.80522 18.20446,18.31728 13.36803,16.81252 21.64846,35.81942 24.94154,57.25086 0.96207,6.26122 1.34477,20.84113 0.72964,27.79816 -2.65856,30.06821 -17.11587,58.68771 -39.7018,78.59318 -8.43873,7.43722 -15.83861,12.38219 -26.18402,17.49747 -12.87662,6.36683 -25.34723,10.08544 -39.22781,11.69736 -6.02349,0.69949 -21.45604,0.69588 -27.33521,-0.006 z"
   id="path3925"
   inkscape:connector-curvature="0" /><path
   style="fill:#717171;fill-opacity:1"
   id="path3927"
   d="m 147.36501,214.7297 c -0.0304,0.0644 -0.0454,0.1316 -0.0629,0.20008 -0.0333,0.13525 -0.0724,0.26892 -0.10215,0.40504 -0.0375,0.19469 -0.0752,0.38933 -0.11412,0.58376 -0.0406,0.21978 -0.0824,0.43944 -0.11628,0.66037 -0.0438,0.30072 -0.0775,0.60278 -0.11177,0.90469 -0.0395,0.34653 -0.0767,0.69331 -0.11079,1.04041 -0.0363,0.37555 -0.0708,0.75127 -0.10551,1.12697 -0.0447,0.4648 -0.0896,0.92959 -0.13552,1.39427 -0.0514,0.50839 -0.10425,1.01663 -0.15506,1.52509 -0.0478,0.51955 -0.10457,1.0382 -0.15952,1.55702 -0.0555,0.56362 -0.12232,1.126 -0.18822,1.68846 -0.075,0.61803 -0.15491,1.23546 -0.23113,1.85334 -0.0775,0.62966 -0.14811,1.26015 -0.21878,1.89061 -0.0726,0.65179 -0.13919,1.30423 -0.20571,1.95667 -0.0757,0.72162 -0.12675,1.44546 -0.17951,2.16903 -0.0597,0.76545 -0.1048,1.53184 -0.14401,2.29857 -0.0344,0.75725 -0.0625,1.51477 -0.0913,2.27225 -0.0305,0.74659 -0.0502,1.49354 -0.0701,2.24047 -0.0201,0.72981 -0.0386,1.45964 -0.0511,2.18962 -0.0114,0.72677 -0.0219,1.45355 -0.0317,2.18034 -0.007,0.7692 -5.4e-4,1.53845 0.004,2.30765 0.004,0.77803 0.0171,1.55599 0.0287,2.33393 0.009,0.50345 0.021,1.00685 0.0356,1.51017 0.0652,2.25828 -3.12851,2.35047 -3.1937,0.0922 v 0 c -0.0149,-0.51819 -0.0272,-1.03645 -0.0366,-1.55477 -0.0117,-0.78746 -0.0249,-1.57493 -0.029,-2.36247 -0.005,-0.78985 -0.0116,-1.57975 -0.004,-2.36959 0.01,-0.7306 0.0204,-1.4612 0.0318,-2.19178 0.0126,-0.74026 0.0313,-1.48037 0.0517,-2.22046 0.0202,-0.759 0.0404,-1.51802 0.0713,-2.27667 0.0293,-0.77146 0.0579,-1.54296 0.0931,-2.31418 0.0404,-0.78977 0.0869,-1.57919 0.1483,-2.36765 0.055,-0.75418 0.1086,-1.5086 0.18752,-2.26075 0.0676,-0.66306 0.1353,-1.32612 0.20912,-1.98852 0.072,-0.64223 0.14398,-1.28448 0.22294,-1.9259 0.0754,-0.6114 0.15437,-1.22236 0.22879,-1.83388 0.0645,-0.55073 0.13002,-1.10135 0.18429,-1.65322 0.0543,-0.51255 0.1104,-1.02492 0.15758,-1.5382 0.0507,-0.50735 0.10337,-1.0145 0.15473,-1.52178 0.0453,-0.45796 0.0895,-0.91604 0.13359,-1.37412 0.0353,-0.38179 0.0703,-0.7636 0.10726,-1.14524 0.0357,-0.36316 0.0745,-0.72599 0.11588,-1.08855 0.0393,-0.34624 0.0783,-0.69262 0.12967,-1.03734 0.0419,-0.26528 0.0897,-0.52964 0.13997,-0.79347 0.0438,-0.21914 0.0851,-0.43877 0.12982,-0.65772 0.0386,-0.16981 0.0833,-0.33793 0.12671,-0.50653 0.0487,-0.18622 0.1017,-0.37151 0.1753,-0.54969 0.81422,-2.1074 3.79453,-0.95592 2.98031,1.15148 z"
   inkscape:connector-curvature="0" /><path
   style="fill:#717171;fill-opacity:1"
   id="path3929"
   d="m 145.01865,227.64591 c 0,0.1175 0,0.23501 0,0.35251 0,0.1717 0,0.34341 0,0.51511 3e-4,0.29223 -0.008,0.58439 -0.0151,0.87652 -0.007,0.31163 -0.014,0.62327 -0.0207,0.93491 -0.007,0.33092 -0.0132,0.66185 -0.0195,0.99278 -0.007,0.3831 -0.0126,0.76621 -0.0183,1.14932 -0.0106,0.44202 -0.0237,0.88398 -0.0359,1.32596 -0.0133,0.47139 -0.025,0.94283 -0.0367,1.41426 -0.008,0.51723 -0.0307,1.03398 -0.0548,1.55066 -0.026,0.53162 -0.0508,1.0633 -0.0739,1.59506 -0.0258,0.58483 -0.0482,1.1698 -0.0699,1.7548 -0.023,0.63042 -0.0425,1.26094 -0.0732,1.89104 -0.0283,0.71644 -0.10194,1.42984 -0.17446,2.14284 -0.0881,0.83455 -0.20192,1.66624 -0.31934,2.49711 -0.12323,0.83916 -0.25076,1.67768 -0.38132,2.51573 -0.13038,0.8235 -0.25412,1.64801 -0.37583,2.47284 -0.12373,0.84689 -0.23805,1.69511 -0.35298,2.54322 -0.11583,0.85262 -0.23322,1.70501 -0.34842,2.55771 -0.11255,0.83682 -0.22394,1.6738 -0.33317,2.51107 -0.1055,0.80938 -0.20974,1.61893 -0.31323,2.42857 -0.0918,0.76325 -0.17252,1.52778 -0.24854,2.29275 -0.0649,0.69977 -0.0789,1.40231 -0.0832,2.10458 -0.002,0.70877 0.0163,1.41721 0.0477,2.1252 0.0354,0.70482 0.0894,1.40855 0.14978,2.11161 0.0617,0.68677 0.12358,1.37354 0.18889,2.05998 0.0496,0.52506 0.11897,1.04791 0.19452,1.56978 0.0647,0.44181 0.13397,0.88295 0.20643,1.32355 0.0549,0.32634 0.11188,0.65229 0.18325,0.97546 0.0407,0.18215 0.0946,0.36066 0.15058,0.53855 0.002,0.0368 0.12683,0.34954 0.0735,0.22117 -0.22411,-0.46583 -0.68293,-0.63128 -1.15691,-0.73177 -0.52886,0.0751 -0.88698,0.0978 -1.19773,0.46966 -0.2471,0.28201 -0.32383,0.76983 -0.30471,1.05089 -0.0286,-0.12321 -0.0494,-0.24824 -0.0803,-0.37095 -0.0383,-0.13917 -0.0829,-0.27642 -0.1224,-0.41528 -0.0726,-0.26464 -0.12745,-0.53385 -0.178,-0.80344 -0.0544,-0.29935 -0.10521,-0.59925 -0.1445,-0.90097 -0.0385,-0.31855 -0.0734,-0.63727 -0.0895,-0.95775 -0.0177,-0.35858 0.0174,-0.71609 0.0609,-1.0715 0.0345,-0.28764 0.095,-0.57098 0.17151,-0.8501 0.0878,-0.34943 0.27824,-0.64104 0.50386,-0.91466 0.16883,-0.18426 0.37774,-0.31899 0.59743,-0.43319 0.16949,-0.0897 0.35358,-0.14353 0.53973,-0.18511 0.32933,-0.0804 0.65567,-0.0326 0.97421,0.0562 0.50178,0.14905 0.83459,0.52539 1.06702,0.96494 0.12621,0.24759 0.19654,0.51747 0.2613,0.78616 0.0483,0.21289 0.0917,0.42687 0.13233,0.64135 0.0396,0.21683 0.0769,0.43406 0.11462,0.65122 0.0385,0.22864 0.0745,0.45768 0.10922,0.68692 0.0351,0.234 0.0679,0.46833 0.10026,0.70272 0.0305,0.23071 0.0656,0.46079 0.1,0.69095 0.0406,0.25756 0.0747,0.51606 0.11071,0.77428 0.0431,0.30201 0.0788,0.60501 0.12161,0.90706 0.0461,0.32356 0.0917,0.64718 0.14013,0.97042 0.0588,0.35075 0.11532,0.70183 0.16737,1.05365 0.0597,0.39377 0.12465,0.7867 0.18732,1.18 0.0728,0.45929 0.14379,0.91882 0.21043,1.37903 0.0742,0.51871 0.1394,1.03862 0.21222,1.55751 0.0728,0.52434 0.15262,1.04762 0.23418,1.57065 0.0794,0.51673 0.16094,1.03311 0.24502,1.5491 0.0771,0.49426 0.16308,0.98699 0.255,1.47869 0.0921,0.49901 0.1898,0.99696 0.28841,1.49471 0.0963,0.49248 0.20165,0.9831 0.31012,1.47301 0.11075,0.49989 0.22483,0.99904 0.3374,1.49852 0.11995,0.54667 0.26014,1.08861 0.39076,1.63279 0.15409,0.64548 0.28874,1.29533 0.42041,1.94568 0.13175,0.66377 0.25923,1.32836 0.39344,1.99164 0.13296,0.65326 0.26602,1.30648 0.40644,1.95818 0.13691,0.63665 0.28474,1.27089 0.42966,1.90575 0.14543,0.63635 0.31007,1.26818 0.46788,1.90156 0.16599,0.67753 0.34566,1.35159 0.52973,2.02439 0.19181,0.68999 0.39056,1.378 0.58915,2.06605 0.18721,0.68979 0.40975,1.36917 0.64466,2.04398 0.26015,0.74359 0.53165,1.48308 0.81178,2.21935 0.28492,0.74294 0.58155,1.48131 0.8773,2.21998 0.29073,0.71838 0.58705,1.43447 0.88048,2.15175 0.28345,0.68437 0.56814,1.36824 0.85129,2.05274 0.27671,0.66663 0.55835,1.33121 0.83253,1.99889 0.27423,0.66393 0.55108,1.32677 0.82703,1.98998 0.27291,0.65314 0.54308,1.30741 0.81151,1.9624 0.26028,0.63499 0.51962,1.27037 0.78079,1.905 0.26757,0.64033 0.51941,1.287 0.76972,1.93421 0.24421,0.62793 0.48981,1.25525 0.72944,1.88495 0.23185,0.61048 0.46277,1.22131 0.6918,1.83285 0.22021,0.5794 0.44099,1.15859 0.66168,1.73781 0.21195,0.55839 0.42283,1.11716 0.63942,1.67377 0.21321,0.54436 0.42423,1.08959 0.63352,1.63547 0.19741,0.50893 0.39837,1.01645 0.60406,1.52209 0.2012,0.48987 0.40013,0.98065 0.5989,1.4715 0.84796,2.09405 -2.11347,3.29326 -2.96144,1.19921 v 0 c -0.19814,-0.48932 -0.39646,-0.97857 -0.59702,-1.4669 -0.21376,-0.52557 -0.4227,-1.05308 -0.62777,-1.58211 -0.2074,-0.54095 -0.41653,-1.08124 -0.62781,-1.62068 -0.21929,-0.56361 -0.43296,-1.12933 -0.6475,-1.69475 -0.22286,-0.58489 -0.44582,-1.16974 -0.66811,-1.75485 -0.22706,-0.60628 -0.456,-1.21185 -0.68585,-1.81707 -0.23757,-0.62432 -0.48117,-1.24625 -0.72325,-1.86882 -0.24208,-0.62597 -0.48548,-1.25149 -0.74439,-1.87075 -0.26177,-0.63607 -0.5217,-1.27289 -0.78257,-1.90932 -0.26627,-0.64972 -0.53427,-1.29872 -0.80498,-1.9466 -0.2779,-0.66786 -0.55669,-1.33536 -0.83281,-2.00396 -0.27299,-0.66511 -0.55385,-1.32695 -0.8293,-1.99104 -0.28474,-0.68835 -0.57107,-1.37604 -0.85604,-2.0643 -0.29644,-0.72464 -0.59585,-1.44807 -0.88944,-2.17387 -0.30262,-0.75583 -0.60606,-1.51138 -0.89746,-2.27164 -0.291,-0.76516 -0.57323,-1.5336 -0.84345,-2.30637 -0.25297,-0.72885 -0.49381,-1.46223 -0.69644,-2.2069 -0.20273,-0.70238 -0.40559,-1.40473 -0.60125,-2.10912 -0.19039,-0.69625 -0.37635,-1.39378 -0.54816,-2.09488 -0.16289,-0.6538 -0.3327,-1.30603 -0.48254,-1.96297 -0.14782,-0.6476 -0.29856,-1.29458 -0.43814,-1.94402 -0.14315,-0.66479 -0.27911,-1.33107 -0.41464,-1.99746 -0.13411,-0.66315 -0.26185,-1.32755 -0.39336,-1.99121 -0.12406,-0.61296 -0.25064,-1.22551 -0.39569,-1.83392 -0.13406,-0.55856 -0.27792,-1.11482 -0.40081,-1.67599 -0.11347,-0.50345 -0.22845,-1.00656 -0.34006,-1.51042 -0.11357,-0.51309 -0.22387,-1.02693 -0.32473,-1.54268 -0.10085,-0.50907 -0.20076,-1.01834 -0.29495,-1.52869 -0.0964,-0.51602 -0.18673,-1.03311 -0.26779,-1.55179 -0.0852,-0.52317 -0.16791,-1.04674 -0.24846,-1.57066 -0.0841,-0.53923 -0.16625,-1.07873 -0.24138,-1.6193 -0.072,-0.51421 -0.13709,-1.02935 -0.21021,-1.54341 -0.0644,-0.44519 -0.1332,-0.88968 -0.20358,-1.33396 -0.0646,-0.40519 -0.13155,-0.81 -0.1928,-1.21572 -0.0516,-0.34982 -0.10883,-0.69874 -0.16647,-1.04761 -0.0498,-0.33247 -0.0967,-0.66532 -0.14416,-0.99812 -0.0426,-0.30373 -0.0795,-0.60821 -0.12229,-0.91192 -0.0344,-0.24761 -0.0671,-0.49546 -0.10611,-0.74242 -0.0362,-0.24203 -0.0729,-0.48399 -0.10508,-0.7266 -0.0305,-0.22071 -0.0614,-0.44138 -0.0943,-0.66174 -0.0311,-0.20633 -0.0637,-0.41246 -0.0981,-0.61828 -0.035,-0.20167 -0.0697,-0.40338 -0.10621,-0.60479 -0.0316,-0.16805 -0.0658,-0.3356 -0.10291,-0.50251 -0.0226,-0.10481 -0.0663,-0.21986 0.0107,-0.0504 0.19644,0.2841 0.45799,0.50801 0.80006,0.61158 0.22587,0.0592 0.45881,0.0777 0.68982,0.0189 0.0809,-0.0271 0.16026,-0.0593 0.23685,-0.0969 0.007,-0.005 0.24041,-0.16692 0.27906,-0.23489 0.0939,-0.11972 0.18987,-0.23752 0.22565,-0.38872 -0.0338,0.12467 -0.0624,0.25073 -0.0765,0.37946 -0.0231,0.1806 -0.0472,0.36208 -0.0392,0.54453 0.002,0.22945 0.0486,0.45709 0.0666,0.68547 0.0297,0.24199 0.0748,0.48171 0.11646,0.72185 0.0322,0.17576 0.0677,0.35125 0.11303,0.52411 0.0485,0.1795 0.11289,0.35459 0.15378,0.53625 0.0315,0.13451 0.0599,0.2697 0.0882,0.40483 0.12771,0.57183 0.0679,1.07963 -0.26635,1.58927 -0.41704,0.53085 -0.81579,0.68245 -1.54769,0.78683 -0.64728,-0.12588 -1.1791,-0.39052 -1.48639,-1.00131 -0.1123,-0.23223 -0.20479,-0.47162 -0.2775,-0.71931 -0.0841,-0.26793 -0.1626,-0.53759 -0.22333,-0.81192 -0.0825,-0.37838 -0.15182,-0.7593 -0.21504,-1.14137 -0.0757,-0.46084 -0.14825,-0.9222 -0.21581,-1.38431 -0.0829,-0.57335 -0.15858,-1.14783 -0.21308,-1.72467 -0.0662,-0.69623 -0.12906,-1.39277 -0.19156,-2.08934 -0.064,-0.74718 -0.12135,-1.49507 -0.15838,-2.24414 -0.0334,-0.76165 -0.0537,-1.52379 -0.0507,-2.28626 0.005,-0.80098 0.0234,-1.60223 0.0988,-2.40021 0.079,-0.79471 0.16287,-1.58896 0.25866,-2.38184 0.10384,-0.81237 0.20843,-1.62465 0.31429,-2.43676 0.10986,-0.84209 0.22189,-1.68389 0.33509,-2.52553 0.11525,-0.85312 0.2327,-1.70595 0.3486,-2.55898 0.11661,-0.86059 0.23265,-1.72128 0.35826,-2.58061 0.12297,-0.8333 0.24799,-1.66628 0.37969,-2.49825 0.12825,-0.82321 0.25351,-1.64688 0.3747,-2.47116 0.11169,-0.78969 0.22012,-1.58017 0.30429,-2.37332 0.0669,-0.65733 0.13619,-1.31493 0.16186,-1.97547 0.0303,-0.61753 0.0488,-1.2355 0.0716,-1.85333 0.0219,-0.59163 0.0446,-1.18323 0.0707,-1.7747 0.0232,-0.53539 0.0481,-1.0707 0.0744,-1.60596 0.0231,-0.49337 0.0446,-0.98679 0.0523,-1.48069 0.0118,-0.47438 0.0235,-0.94877 0.0369,-1.42312 0.0118,-0.42831 0.0243,-0.85661 0.035,-1.28496 0.006,-0.3875 0.0117,-0.775 0.0185,-1.16248 0.006,-0.33383 0.0126,-0.66765 0.0197,-1.00147 0.007,-0.31324 0.0136,-0.62649 0.0208,-0.93972 0.006,-0.26756 0.0143,-0.53514 0.0142,-0.80278 0,-0.1717 0,-0.34341 0,-0.51511 0,-0.1175 0,-0.23501 0,-0.35251 0,-2.25923 3.19503,-2.25923 3.19503,0 z"
   inkscape:connector-curvature="0" /><path
   style="fill:#717171;fill-opacity:1"
   id="path3931"
   d="m 145.01387,256.47683 c -0.008,0.17502 -0.0291,0.34896 -0.0467,0.52315 -0.0141,0.13954 -0.0266,0.27925 -0.0382,0.41902 -0.0105,0.10966 -0.0103,0.22027 -0.006,0.33026 0.007,0.15659 0.0155,0.3131 0.0238,0.46962 0.01,0.19391 0.0184,0.38786 0.0267,0.58183 0.009,0.37795 -0.0622,0.74934 -0.14037,1.11708 -0.0621,0.29479 -0.13113,0.58802 -0.19442,0.88255 -0.0655,0.27556 -0.11325,0.55379 -0.15314,0.83398 -0.0431,0.23828 -0.0605,0.47708 -0.0618,0.71862 0.006,0.21908 0.0477,0.43453 0.0843,0.65001 0.0483,0.26998 0.10489,0.53839 0.17095,0.80458 0.0709,0.28415 0.14804,0.56664 0.22716,0.8486 0.0822,0.2789 0.16927,0.55635 0.25262,0.83493 0.0921,0.3075 0.18327,0.61516 0.26422,0.92579 0.10184,0.40015 0.1828,0.80363 0.23222,1.21354 0.044,0.47181 0.0315,0.94538 -0.004,1.41708 -0.0389,0.42776 -0.11772,0.85011 -0.19695,1.27178 -0.0636,0.36495 -0.14131,0.72647 -0.23881,1.08381 -0.0761,0.2687 -0.15838,0.53558 -0.25458,0.79777 -0.0729,0.19125 -0.15386,0.37931 -0.23731,0.56616 -0.0687,0.16055 -0.15595,0.31192 -0.24375,0.46249 -0.64661,1.2026 -3.16497,0.19719 -2.99776,-1.23474 0.0202,-0.11416 0.031,-0.21176 0.0315,-0.28005 0.008,-0.13087 -0.006,-0.25742 -0.0179,-0.38715 -0.0308,-0.24914 -0.056,-0.49891 -0.0816,-0.74862 -0.0326,-0.3142 -0.0586,-0.62902 -0.0856,-0.94373 -0.0516,-0.43862 -0.0326,-0.87972 -0.0101,-1.31941 0.0261,-0.43227 0.0696,-0.86327 0.10994,-1.29439 0.0386,-0.46977 0.0846,-0.93885 0.13176,-1.40781 0.054,-0.50224 0.111,-1.00416 0.1685,-1.50602 0.0668,-0.55849 0.13504,-1.1168 0.21047,-1.6742 0.0384,-0.27856 0.0781,-0.55694 0.1177,-0.83533 0.31815,-2.23671 3.48134,-1.78678 3.16319,0.44994 v 0 c -0.0386,0.27139 -0.0773,0.54277 -0.11478,0.81433 -0.0727,0.53567 -0.13789,1.0723 -0.20233,1.60902 -0.0558,0.48712 -0.11106,0.97433 -0.16375,1.46181 -0.0464,0.46165 -0.0916,0.92341 -0.12963,1.38585 -0.0362,0.38671 -0.0753,0.7733 -0.10027,1.16093 -0.0153,0.29439 -0.0372,0.58875 0.003,0.88228 0.0255,0.29715 0.0499,0.59442 0.0806,0.89108 0.0268,0.2613 0.0542,0.52251 0.085,0.78336 0.0222,0.24432 0.0389,0.489 0.0307,0.7345 -0.005,0.20898 -0.0191,0.41712 -0.056,0.6231 -0.1667,1.06622 -3.54397,0.17235 -2.94658,-0.74935 0.0413,-0.0719 0.0761,-0.12202 0.1022,-0.18386 0.0559,-0.12432 0.10978,-0.24962 0.15959,-0.37653 0.0672,-0.17176 0.11286,-0.35127 0.16721,-0.5273 0.0756,-0.2727 0.1306,-0.54952 0.17979,-0.82818 0.0577,-0.3069 0.1172,-0.61379 0.15121,-0.92447 0.021,-0.26738 0.0315,-0.53484 0.0162,-0.80302 -0.0293,-0.26522 -0.089,-0.52408 -0.15176,-0.78349 -0.07,-0.27262 -0.15276,-0.54162 -0.23236,-0.81155 -0.0885,-0.296 -0.18157,-0.5906 -0.26779,-0.88728 -0.0884,-0.31499 -0.17425,-0.63065 -0.25336,-0.94812 -0.0838,-0.34253 -0.15796,-0.68735 -0.21869,-1.03478 -0.068,-0.40234 -0.13108,-0.80665 -0.12896,-1.21603 0.005,-0.38142 0.0302,-0.76127 0.0938,-1.13786 0.0507,-0.35389 0.11158,-0.70574 0.19249,-1.05413 0.0633,-0.29376 0.13176,-0.58635 0.19396,-0.88035 0.016,-0.0736 0.0514,-0.34984 0.0723,-0.31067 -0.008,-0.18305 -0.0163,-0.36608 -0.0252,-0.54909 -0.01,-0.18186 -0.0198,-0.36371 -0.027,-0.5457 -0.006,-0.22981 -0.006,-0.46018 0.0155,-0.68928 0.0132,-0.15838 0.0273,-0.31669 0.0434,-0.47481 0.0108,-0.10661 0.0229,-0.21309 0.0326,-0.3198 0.0836,-2.25768 3.27646,-2.13942 3.19284,0.11825 z"
   inkscape:connector-curvature="0" /><path
   style="fill:#717171;fill-opacity:1"
   id="path3935"
   d="m 137.41356,218.6085 c -0.0411,-0.36654 -0.0512,-0.7354 -0.052,-1.10392 -0.0116,-0.55177 0.0562,-1.09946 0.13697,-1.64368 0.0462,-0.29057 0.0923,-0.58116 0.13995,-0.8715 0.0577,-0.33793 0.12079,-0.67491 0.18311,-1.01201 0.066,-0.37291 0.14306,-0.74367 0.22532,-1.11329 0.0719,-0.31544 0.15482,-0.62821 0.23733,-0.94093 0.047,-0.26013 0.10178,-0.52041 0.15475,-0.77995 0.0831,-0.41585 0.16518,-0.83189 0.24758,-1.24788 0.0904,-0.44956 0.18849,-0.89755 0.27966,-1.34696 0.10128,-0.50076 0.21554,-0.99872 0.33042,-1.49649 0.11113,-0.48208 0.22352,-0.96386 0.33777,-1.44522 0.12646,-0.5439 0.26104,-1.08585 0.40026,-1.62661 0.14177,-0.55984 0.29676,-1.11617 0.45283,-1.67215 0.1641,-0.59383 0.33731,-1.18495 0.52521,-1.77165 0.20421,-0.62028 0.42859,-1.23348 0.66392,-1.84253 0.21824,-0.55596 0.45046,-1.10621 0.68507,-1.6554 0.25216,-0.57077 0.5189,-1.13495 0.79285,-1.69553 0.27507,-0.5761 0.57892,-1.13754 0.89179,-1.69379 0.30209,-0.52625 0.60964,-1.04921 0.92995,-1.56459 0.30997,-0.49506 0.63604,-0.97973 0.95806,-1.46697 0.21412,-0.34382 0.46243,-0.66604 0.66864,-1.01467 0.0571,-0.11878 0.11442,-0.23839 0.17037,-0.35804 0.0766,-0.18819 0.15091,-0.37749 0.22479,-0.56684 0.0147,-0.10616 0.12513,-0.45823 0.17191,-0.61983 0.13298,-0.46292 0.26864,-0.92504 0.40473,-1.38705 0.14219,-0.47331 0.28994,-0.94491 0.43497,-1.41735 0.15796,-0.51182 0.32996,-1.01911 0.504,-1.52564 0.13975,-0.40436 0.27981,-0.80862 0.41662,-1.21399 0.19382,-0.59583 0.42923,-1.1767 0.67267,-1.75361 0.21257,-0.49671 0.43711,-0.98811 0.66691,-1.47704 0.24303,-0.52009 0.50073,-1.03281 0.77013,-1.53964 0.26068,-0.4709 0.5355,-0.93371 0.81439,-1.39399 0.13987,-0.21966 0.33675,-0.55145 0.40259,-0.68248 0.13358,-0.25793 0.25651,-0.52102 0.37704,-0.78523 0.13476,-0.30648 0.2535,-0.61975 0.3787,-0.93021 0.18482,-0.45397 0.37374,-0.90626 0.55971,-1.35976 0.17783,-0.43965 0.35238,-0.88061 0.53043,-1.32018 0.18629,-0.457 0.3684,-0.91567 0.55531,-1.37241 0.18259,-0.439 0.36006,-0.88006 0.53947,-1.32036 0.18353,-0.437 0.36678,-0.87405 0.54555,-1.31303 0.18382,-0.44339 0.36985,-0.88586 0.554,-1.32911 0.17125,-0.41063 0.34167,-0.8216 0.51088,-1.23308 0.19647,-0.48493 0.40551,-0.96459 0.6211,-1.44128 0.20474,-0.453 0.41939,-0.90143 0.63835,-1.34769 4.4257,-9.01304 17.17205,-2.75416 12.74636,6.25888 v 0 c -0.15579,0.31691 -0.30861,0.63531 -0.45392,0.95719 -0.14692,0.32144 -0.2861,0.64636 -0.419,0.97386 -0.17569,0.4272 -0.35259,0.8539 -0.53037,1.28024 -0.17148,0.41275 -0.34423,0.82497 -0.51631,1.23747 -0.17911,0.43969 -0.3611,0.87815 -0.54645,1.31525 -0.18229,0.4473 -0.36266,0.89538 -0.54807,1.34142 -0.18042,0.44055 -0.35557,0.88323 -0.53558,1.32396 -0.18594,0.45899 -0.3677,0.91964 -0.55417,1.37841 -0.17702,0.43137 -0.35633,0.86179 -0.5327,1.29343 -0.20596,0.50697 -0.40033,1.01896 -0.63084,1.51562 -0.21991,0.47968 -0.44594,0.95659 -0.68936,1.4249 -0.26746,0.51049 -0.55351,1.01012 -0.86095,1.49766 -0.16717,0.27529 -0.3322,0.55186 -0.49095,0.83213 0.0515,-0.11795 0.0346,-0.0768 -0.0664,0.1271 -0.10837,0.21871 -0.21725,0.43721 -0.32084,0.65824 -0.14992,0.31785 -0.29615,0.6374 -0.43596,0.95984 -0.10712,0.25255 -0.21728,0.50453 -0.29812,0.76709 -0.14503,0.4292 -0.29279,0.85746 -0.441,1.28557 -0.12307,0.35802 -0.24586,0.7162 -0.35833,1.07773 -0.12919,0.42082 -0.2603,0.84104 -0.38832,1.26221 -0.12985,0.44086 -0.25938,0.8818 -0.38617,1.32354 -0.17867,0.61714 -0.3518,1.23698 -0.58466,1.83657 -0.19035,0.48718 -0.38249,0.97414 -0.60381,1.4483 -0.28043,0.59403 -0.57647,1.18124 -0.91843,1.74273 -0.29632,0.4784 -0.61091,0.9443 -0.9224,1.41285 -0.25365,0.38377 -0.51087,0.76524 -0.757,1.15392 -0.21222,0.33736 -0.4095,0.68362 -0.61101,1.02744 -0.17764,0.31261 -0.34973,0.62821 -0.50247,0.95389 -0.16796,0.34291 -0.33051,0.6883 -0.49044,1.03502 -0.17129,0.40083 -0.3417,0.80203 -0.50254,1.2072 -0.14351,0.36854 -0.27948,0.73985 -0.40456,1.1151 -0.14219,0.3939 -0.22963,0.80681 -0.35377,1.20642 -0.12855,0.45784 -0.25703,0.91575 -0.37335,1.37689 -0.11685,0.45307 -0.22934,0.90726 -0.33505,1.36308 -0.1075,0.45287 -0.21323,0.90614 -0.31775,1.35971 -0.0871,0.37745 -0.17492,0.7548 -0.25182,1.13451 -0.0869,0.42601 -0.17809,0.85111 -0.2656,1.27699 -0.0877,0.44188 -0.1748,0.88387 -0.26322,1.32559 -0.0986,0.48302 -0.1884,0.96813 -0.30764,1.44665 -0.0498,0.19268 -0.10256,0.38442 -0.14984,0.57773 -0.0402,0.18313 -0.0781,0.36695 -0.10976,0.55189 -0.0453,0.24484 -0.0906,0.48966 -0.13467,0.73472 -0.0391,0.23697 -0.0761,0.47429 -0.11456,0.71136 -0.0199,0.1163 0.0435,-0.97937 0.0259,-0.51746 -0.004,-0.0705 -0.0264,-0.39877 -0.0214,-0.32078 1.0193,9.98912 -13.10745,11.43063 -14.12675,1.4415 z"
   inkscape:connector-curvature="0" /></svg>