<?xml version="1.0" encoding="iso-8859-1"?>
<!-- Generator: Adobe Illustrator 19.0.0, SVG Export Plug-In . SVG Version: 6.00 Build 0)  -->
<svg version="1.1" id="Layer_1" xmlns="http://www.w3.org/2000/svg" xmlns:xlink="http://www.w3.org/1999/xlink" x="0px" y="0px"
	 viewBox="0 0 512 512" style="enable-background:new 0 0 512 512;" xml:space="preserve">
<g>
	<g>
		<path d="M331.437,0l-22.57,22.57l34.937,34.937l-97.863,85.318c-27.822-7.562-57.151-8.183-85.386-1.739
			c-32.139,7.334-61.502,23.586-84.915,46.999L64.355,199.37l112.852,112.852L0,489.43L22.57,512l177.207-177.207l112.852,112.852
			l11.285-11.285c23.413-23.413,39.665-52.776,46.999-84.915c6.445-28.236,5.824-57.564-1.739-85.386l85.318-97.863l34.938,34.937
			l22.57-22.57L331.437,0z M333.36,258.566l2.84,8.629c15.382,46.743,6.046,96.993-24.187,134.693l-201.9-201.9
			c37.701-30.233,87.951-39.568,134.693-24.187l8.629,2.84l112.992-98.508l65.442,65.442L333.36,258.566z"/>
	</g>
</g>
<g>
</g>
<g>
</g>
<g>
</g>
<g>
</g>
<g>
</g>
<g>
</g>
<g>
</g>
<g>
</g>
<g>
</g>
<g>
</g>
<g>
</g>
<g>
</g>
<g>
</g>
<g>
</g>
<g>
</g>
</svg>
