<?xml version="1.0" encoding="iso-8859-1"?>
<!-- Generator: Adobe Illustrator 19.0.0, SVG Export Plug-In . SVG Version: 6.00 Build 0)  -->
<svg version="1.1" id="Layer_1" xmlns="http://www.w3.org/2000/svg" xmlns:xlink="http://www.w3.org/1999/xlink" x="0px" y="0px"
	 viewBox="0 0 512.007 512.007" style="enable-background:new 0 0 512.007 512.007;" xml:space="preserve">
<rect x="97.107" y="255.03" transform="matrix(-0.7071 -0.7071 0.7071 -0.7071 -89.086 761.0052)" style="fill:#6DA8D6;" width="31.919" height="287.846"/>
<path style="fill:#D82F30;" d="M313.839,446.446L189.701,322.31l103.357-133.452l63.385,78.432
	C376.502,328.231,362.305,397.981,313.839,446.446z"/>
<polygon style="fill:#BD1515;" points="458.778,149.909 356.444,267.29 300.583,211.428 325.417,126.406 410.439,101.571 "/>
<path style="fill:#F2484B;" d="M308.106,203.905L189.701,322.31L65.565,198.172c48.466-48.466,118.216-62.663,179.156-42.605
	L308.106,203.905z"/>
<polygon style="fill:#D82F30;" points="410.439,101.571 300.583,211.428 244.721,155.567 362.102,53.233 "/>
<rect x="282.753" y="85.606" transform="matrix(-0.7071 -0.7071 0.7071 -0.7071 628.8279 463.6005)" style="fill:#BD1515;" width="255.352" height="31.919"/>
<g>
</g>
<g>
</g>
<g>
</g>
<g>
</g>
<g>
</g>
<g>
</g>
<g>
</g>
<g>
</g>
<g>
</g>
<g>
</g>
<g>
</g>
<g>
</g>
<g>
</g>
<g>
</g>
<g>
</g>
</svg>
