<?xml version="1.0" encoding="iso-8859-1"?>
<!-- Generator: Adobe Illustrator 19.0.0, SVG Export Plug-In . SVG Version: 6.00 Build 0)  -->
<svg version="1.1" id="Layer_1" xmlns="http://www.w3.org/2000/svg" xmlns:xlink="http://www.w3.org/1999/xlink" x="0px" y="0px"
	 viewBox="0 0 512 512" style="enable-background:new 0 0 512 512;" xml:space="preserve">
<g>
	<path style="fill:#58575D;" d="M290.517,512c-28.549,0-51.775-23.225-51.775-51.775V253.124h34.517v207.101
		c0,9.517,7.742,17.258,17.258,17.258c9.516,0,17.258-7.741,17.258-17.258h34.517C342.292,488.775,319.066,512,290.517,512z"/>
	<rect x="238.742" style="fill:#58575D;" width="34.517" height="80.539"/>
</g>
<path style="fill:#99A1EA;" d="M48.899,276.135c0-114.379,92.723-207.101,207.101-207.101s207.101,92.723,207.101,207.101
	c0,0-23.18-23.011-51.775-23.011s-51.775,23.011-51.775,23.011s-23.18-23.011-51.775-23.011c-28.595,0-51.775,23.011-51.775,23.011
	s-23.18-23.011-51.775-23.011s-51.775,23.011-51.775,23.011s-23.18-23.011-51.775-23.011S48.899,276.135,48.899,276.135z"/>
<path style="fill:#717AE1;" d="M463.101,276.135c0,0-23.18-23.011-51.775-23.011s-51.775,23.011-51.775,23.011
	s-23.18-23.011-51.775-23.011c-28.595,0-51.775,23.011-51.775,23.011V69.034C370.379,69.034,463.101,161.756,463.101,276.135z"/>
<g>
</g>
<g>
</g>
<g>
</g>
<g>
</g>
<g>
</g>
<g>
</g>
<g>
</g>
<g>
</g>
<g>
</g>
<g>
</g>
<g>
</g>
<g>
</g>
<g>
</g>
<g>
</g>
<g>
</g>
</svg>
