<?xml version="1.0" encoding="UTF-8" standalone="no"?>
<!-- Created with Inkscape (http://www.inkscape.org/) -->

<svg
   xmlns:dc="http://purl.org/dc/elements/1.1/"
   xmlns:cc="http://creativecommons.org/ns#"
   xmlns:rdf="http://www.w3.org/1999/02/22-rdf-syntax-ns#"
   xmlns:svg="http://www.w3.org/2000/svg"
   xmlns="http://www.w3.org/2000/svg"
   xmlns:sodipodi="http://sodipodi.sourceforge.net/DTD/sodipodi-0.dtd"
   xmlns:inkscape="http://www.inkscape.org/namespaces/inkscape"
   width="980.47968"
   height="427.91556"
   viewBox="0 0 980.47968 427.91556"
   version="1.1"
   id="SVGRoot"
   inkscape:version="0.92.3 (2405546, 2018-03-11)"
   sodipodi:docname="drawing.svg">
  <sodipodi:namedview
     id="base"
     pagecolor="#ffffff"
     bordercolor="#666666"
     borderopacity="1.0"
     inkscape:pageopacity="0.0"
     inkscape:pageshadow="2"
     inkscape:zoom="0.35"
     inkscape:cx="327.58463"
     inkscape:cy="105.0224"
     inkscape:document-units="px"
     inkscape:current-layer="layer1"
     showgrid="false"
     inkscape:window-width="1851"
     inkscape:window-height="1025"
     inkscape:window-x="69"
     inkscape:window-y="27"
     inkscape:window-maximized="1"
     inkscape:object-paths="true" />
  <defs
     id="defs3909">
    <inkscape:path-effect
       effect="skeletal"
       id="path-effect5662"
       is_visible="true"
       pattern="M 0,5 C 0,2.24 2.24,0 5,0 7.76,0 10,2.24 10,5 10,7.76 7.76,10 5,10 2.24,10 0,7.76 0,5 Z"
       copytype="single_stretched"
       prop_scale="1"
       scale_y_rel="false"
       spacing="0"
       normal_offset="0"
       tang_offset="0"
       prop_units="false"
       vertical_pattern="false"
       fuse_tolerance="0" />
    <inkscape:path-effect
       effect="spiro"
       id="path-effect5660"
       is_visible="true" />
    <inkscape:path-effect
       effect="simplify"
       id="path-effect5658"
       is_visible="true"
       steps="1"
       threshold="0.00821429"
       smooth_angles="360"
       helper_size="0"
       simplify_individual_paths="false"
       simplify_just_coalesce="false"
       simplifyindividualpaths="false"
       simplifyJustCoalesce="false" />
    <inkscape:path-effect
       effect="skeletal"
       id="path-effect5590"
       is_visible="true"
       pattern="M 0,5 C 0,2.24 2.24,0 5,0 7.76,0 10,2.24 10,5 10,7.76 7.76,10 5,10 2.24,10 0,7.76 0,5 Z"
       copytype="single_stretched"
       prop_scale="1"
       scale_y_rel="false"
       spacing="0"
       normal_offset="0"
       tang_offset="0"
       prop_units="false"
       vertical_pattern="false"
       fuse_tolerance="0" />
    <inkscape:path-effect
       effect="spiro"
       id="path-effect5588"
       is_visible="true" />
    <inkscape:path-effect
       effect="simplify"
       id="path-effect5586"
       is_visible="true"
       steps="1"
       threshold="0.00821429"
       smooth_angles="360"
       helper_size="0"
       simplify_individual_paths="false"
       simplify_just_coalesce="false"
       simplifyindividualpaths="false"
       simplifyJustCoalesce="false" />
    <inkscape:path-effect
       effect="skeletal"
       id="path-effect5582"
       is_visible="true"
       pattern="M 0,5 C 0,2.24 2.24,0 5,0 7.76,0 10,2.24 10,5 10,7.76 7.76,10 5,10 2.24,10 0,7.76 0,5 Z"
       copytype="single_stretched"
       prop_scale="1"
       scale_y_rel="false"
       spacing="0"
       normal_offset="0"
       tang_offset="0"
       prop_units="false"
       vertical_pattern="false"
       fuse_tolerance="0" />
    <inkscape:path-effect
       effect="spiro"
       id="path-effect5580"
       is_visible="true" />
    <inkscape:path-effect
       effect="simplify"
       id="path-effect5578"
       is_visible="true"
       steps="1"
       threshold="0.00821429"
       smooth_angles="360"
       helper_size="0"
       simplify_individual_paths="false"
       simplify_just_coalesce="false"
       simplifyindividualpaths="false"
       simplifyJustCoalesce="false" />
    <inkscape:path-effect
       effect="skeletal"
       id="path-effect5574"
       is_visible="true"
       pattern="M 0,5 C 0,2.24 2.24,0 5,0 7.76,0 10,2.24 10,5 10,7.76 7.76,10 5,10 2.24,10 0,7.76 0,5 Z"
       copytype="single_stretched"
       prop_scale="1"
       scale_y_rel="false"
       spacing="0"
       normal_offset="0"
       tang_offset="0"
       prop_units="false"
       vertical_pattern="false"
       fuse_tolerance="0" />
    <inkscape:path-effect
       effect="spiro"
       id="path-effect5572"
       is_visible="true" />
    <inkscape:path-effect
       effect="simplify"
       id="path-effect5570"
       is_visible="true"
       steps="1"
       threshold="0.00821429"
       smooth_angles="360"
       helper_size="0"
       simplify_individual_paths="false"
       simplify_just_coalesce="false"
       simplifyindividualpaths="false"
       simplifyJustCoalesce="false" />
    <inkscape:path-effect
       effect="skeletal"
       id="path-effect5502"
       is_visible="true"
       pattern="M 0,5 C 0,2.24 2.24,0 5,0 7.76,0 10,2.24 10,5 10,7.76 7.76,10 5,10 2.24,10 0,7.76 0,5 Z"
       copytype="single_stretched"
       prop_scale="1"
       scale_y_rel="false"
       spacing="0"
       normal_offset="0"
       tang_offset="0"
       prop_units="false"
       vertical_pattern="false"
       fuse_tolerance="0" />
    <inkscape:path-effect
       effect="spiro"
       id="path-effect5500"
       is_visible="true" />
    <inkscape:path-effect
       effect="simplify"
       id="path-effect5498"
       is_visible="true"
       steps="1"
       threshold="0.00821429"
       smooth_angles="360"
       helper_size="0"
       simplify_individual_paths="false"
       simplify_just_coalesce="false"
       simplifyindividualpaths="false"
       simplifyJustCoalesce="false" />
    <inkscape:path-effect
       effect="skeletal"
       id="path-effect5486"
       is_visible="true"
       pattern="M 0,5 C 0,2.24 2.24,0 5,0 7.76,0 10,2.24 10,5 10,7.76 7.76,10 5,10 2.24,10 0,7.76 0,5 Z"
       copytype="single_stretched"
       prop_scale="1"
       scale_y_rel="false"
       spacing="0"
       normal_offset="0"
       tang_offset="0"
       prop_units="false"
       vertical_pattern="false"
       fuse_tolerance="0" />
    <inkscape:path-effect
       effect="spiro"
       id="path-effect5484"
       is_visible="true" />
    <inkscape:path-effect
       effect="simplify"
       id="path-effect5482"
       is_visible="true"
       steps="1"
       threshold="0.00821429"
       smooth_angles="360"
       helper_size="0"
       simplify_individual_paths="false"
       simplify_just_coalesce="false"
       simplifyindividualpaths="false"
       simplifyJustCoalesce="false" />
    <inkscape:path-effect
       effect="skeletal"
       id="path-effect5462"
       is_visible="true"
       pattern="M 0,5 C 0,2.24 2.24,0 5,0 7.76,0 10,2.24 10,5 10,7.76 7.76,10 5,10 2.24,10 0,7.76 0,5 Z"
       copytype="single_stretched"
       prop_scale="1"
       scale_y_rel="false"
       spacing="0"
       normal_offset="0"
       tang_offset="0"
       prop_units="false"
       vertical_pattern="false"
       fuse_tolerance="0" />
    <inkscape:path-effect
       effect="spiro"
       id="path-effect5460"
       is_visible="true" />
    <inkscape:path-effect
       effect="simplify"
       id="path-effect5458"
       is_visible="true"
       steps="1"
       threshold="0.00821429"
       smooth_angles="360"
       helper_size="0"
       simplify_individual_paths="false"
       simplify_just_coalesce="false"
       simplifyindividualpaths="false"
       simplifyJustCoalesce="false" />
    <inkscape:path-effect
       effect="skeletal"
       id="path-effect5454"
       is_visible="true"
       pattern="M 0,5 C 0,2.24 2.24,0 5,0 7.76,0 10,2.24 10,5 10,7.76 7.76,10 5,10 2.24,10 0,7.76 0,5 Z"
       copytype="single_stretched"
       prop_scale="1"
       scale_y_rel="false"
       spacing="0"
       normal_offset="0"
       tang_offset="0"
       prop_units="false"
       vertical_pattern="false"
       fuse_tolerance="0" />
    <inkscape:path-effect
       effect="spiro"
       id="path-effect5452"
       is_visible="true" />
    <inkscape:path-effect
       effect="simplify"
       id="path-effect5450"
       is_visible="true"
       steps="1"
       threshold="0.00821429"
       smooth_angles="360"
       helper_size="0"
       simplify_individual_paths="false"
       simplify_just_coalesce="false"
       simplifyindividualpaths="false"
       simplifyJustCoalesce="false" />
    <inkscape:path-effect
       effect="skeletal"
       id="path-effect5358"
       is_visible="true"
       pattern="M 0,5 C 0,2.24 2.24,0 5,0 7.76,0 10,2.24 10,5 10,7.76 7.76,10 5,10 2.24,10 0,7.76 0,5 Z"
       copytype="single_stretched"
       prop_scale="1"
       scale_y_rel="false"
       spacing="0"
       normal_offset="0"
       tang_offset="0"
       prop_units="false"
       vertical_pattern="false"
       fuse_tolerance="0" />
    <inkscape:path-effect
       effect="spiro"
       id="path-effect5356"
       is_visible="true" />
    <inkscape:path-effect
       effect="simplify"
       id="path-effect5354"
       is_visible="true"
       steps="1"
       threshold="0.00821429"
       smooth_angles="360"
       helper_size="0"
       simplify_individual_paths="false"
       simplify_just_coalesce="false"
       simplifyindividualpaths="false"
       simplifyJustCoalesce="false" />
    <inkscape:path-effect
       effect="skeletal"
       id="path-effect5302"
       is_visible="true"
       pattern="M 0,5 C 0,2.24 2.24,0 5,0 7.76,0 10,2.24 10,5 10,7.76 7.76,10 5,10 2.24,10 0,7.76 0,5 Z"
       copytype="single_stretched"
       prop_scale="1"
       scale_y_rel="false"
       spacing="0"
       normal_offset="0"
       tang_offset="0"
       prop_units="false"
       vertical_pattern="false"
       fuse_tolerance="0" />
    <inkscape:path-effect
       effect="spiro"
       id="path-effect5300"
       is_visible="true" />
    <inkscape:path-effect
       effect="simplify"
       id="path-effect5298"
       is_visible="true"
       steps="1"
       threshold="0.00821429"
       smooth_angles="360"
       helper_size="0"
       simplify_individual_paths="false"
       simplify_just_coalesce="false"
       simplifyindividualpaths="false"
       simplifyJustCoalesce="false" />
    <inkscape:path-effect
       effect="skeletal"
       id="path-effect5294"
       is_visible="true"
       pattern="M 0,5 C 0,2.24 2.24,0 5,0 7.76,0 10,2.24 10,5 10,7.76 7.76,10 5,10 2.24,10 0,7.76 0,5 Z"
       copytype="single_stretched"
       prop_scale="1"
       scale_y_rel="false"
       spacing="0"
       normal_offset="0"
       tang_offset="0"
       prop_units="false"
       vertical_pattern="false"
       fuse_tolerance="0" />
    <inkscape:path-effect
       effect="spiro"
       id="path-effect5292"
       is_visible="true" />
    <inkscape:path-effect
       effect="simplify"
       id="path-effect5290"
       is_visible="true"
       steps="1"
       threshold="0.00821429"
       smooth_angles="360"
       helper_size="0"
       simplify_individual_paths="false"
       simplify_just_coalesce="false"
       simplifyindividualpaths="false"
       simplifyJustCoalesce="false" />
    <inkscape:path-effect
       effect="skeletal"
       id="path-effect5278"
       is_visible="true"
       pattern="M 0,5 C 0,2.24 2.24,0 5,0 7.76,0 10,2.24 10,5 10,7.76 7.76,10 5,10 2.24,10 0,7.76 0,5 Z"
       copytype="single_stretched"
       prop_scale="1"
       scale_y_rel="false"
       spacing="0"
       normal_offset="0"
       tang_offset="0"
       prop_units="false"
       vertical_pattern="false"
       fuse_tolerance="0" />
    <inkscape:path-effect
       effect="spiro"
       id="path-effect5276"
       is_visible="true" />
    <inkscape:path-effect
       effect="simplify"
       id="path-effect5274"
       is_visible="true"
       steps="1"
       threshold="0.00821429"
       smooth_angles="360"
       helper_size="0"
       simplify_individual_paths="false"
       simplify_just_coalesce="false"
       simplifyindividualpaths="false"
       simplifyJustCoalesce="false" />
    <inkscape:path-effect
       effect="skeletal"
       id="path-effect5270"
       is_visible="true"
       pattern="M 0,5 C 0,2.24 2.24,0 5,0 7.76,0 10,2.24 10,5 10,7.76 7.76,10 5,10 2.24,10 0,7.76 0,5 Z"
       copytype="single_stretched"
       prop_scale="1"
       scale_y_rel="false"
       spacing="0"
       normal_offset="0"
       tang_offset="0"
       prop_units="false"
       vertical_pattern="false"
       fuse_tolerance="0" />
    <inkscape:path-effect
       effect="spiro"
       id="path-effect5268"
       is_visible="true" />
    <inkscape:path-effect
       effect="simplify"
       id="path-effect5266"
       is_visible="true"
       steps="1"
       threshold="0.00821429"
       smooth_angles="360"
       helper_size="0"
       simplify_individual_paths="false"
       simplify_just_coalesce="false"
       simplifyindividualpaths="false"
       simplifyJustCoalesce="false" />
    <inkscape:path-effect
       effect="skeletal"
       id="path-effect5246"
       is_visible="true"
       pattern="M 0,5 C 0,2.24 2.24,0 5,0 7.76,0 10,2.24 10,5 10,7.76 7.76,10 5,10 2.24,10 0,7.76 0,5 Z"
       copytype="single_stretched"
       prop_scale="1"
       scale_y_rel="false"
       spacing="0"
       normal_offset="0"
       tang_offset="0"
       prop_units="false"
       vertical_pattern="false"
       fuse_tolerance="0" />
    <inkscape:path-effect
       effect="spiro"
       id="path-effect5244"
       is_visible="true" />
    <inkscape:path-effect
       effect="simplify"
       id="path-effect5242"
       is_visible="true"
       steps="1"
       threshold="0.00821429"
       smooth_angles="360"
       helper_size="0"
       simplify_individual_paths="false"
       simplify_just_coalesce="false"
       simplifyindividualpaths="false"
       simplifyJustCoalesce="false" />
    <inkscape:path-effect
       effect="skeletal"
       id="path-effect5238"
       is_visible="true"
       pattern="M 0,5 C 0,2.24 2.24,0 5,0 7.76,0 10,2.24 10,5 10,7.76 7.76,10 5,10 2.24,10 0,7.76 0,5 Z"
       copytype="single_stretched"
       prop_scale="1"
       scale_y_rel="false"
       spacing="0"
       normal_offset="0"
       tang_offset="0"
       prop_units="false"
       vertical_pattern="false"
       fuse_tolerance="0" />
    <inkscape:path-effect
       effect="spiro"
       id="path-effect5236"
       is_visible="true" />
    <inkscape:path-effect
       effect="simplify"
       id="path-effect5234"
       is_visible="true"
       steps="1"
       threshold="0.00821429"
       smooth_angles="360"
       helper_size="0"
       simplify_individual_paths="false"
       simplify_just_coalesce="false"
       simplifyindividualpaths="false"
       simplifyJustCoalesce="false" />
    <inkscape:path-effect
       effect="skeletal"
       id="path-effect4425"
       is_visible="true"
       pattern="M 0,5 C 0,2.24 2.24,0 5,0 7.76,0 10,2.24 10,5 10,7.76 7.76,10 5,10 2.24,10 0,7.76 0,5 Z"
       copytype="single_stretched"
       prop_scale="1"
       scale_y_rel="false"
       spacing="0"
       normal_offset="0"
       tang_offset="0"
       prop_units="false"
       vertical_pattern="false"
       fuse_tolerance="0" />
    <inkscape:path-effect
       effect="spiro"
       id="path-effect4423"
       is_visible="true" />
    <inkscape:path-effect
       effect="simplify"
       id="path-effect4421"
       is_visible="true"
       steps="1"
       threshold="0.00821429"
       smooth_angles="360"
       helper_size="0"
       simplify_individual_paths="false"
       simplify_just_coalesce="false"
       simplifyindividualpaths="false"
       simplifyJustCoalesce="false" />
  </defs>
  <metadata
     id="metadata3912">
    <rdf:RDF>
      <cc:Work
         rdf:about="">
        <dc:format>image/svg+xml</dc:format>
        <dc:type
           rdf:resource="http://purl.org/dc/dcmitype/StillImage" />
        <dc:title></dc:title>
      </cc:Work>
    </rdf:RDF>
  </metadata>
  <g
     id="layer1"
     inkscape:groupmode="layer"
     inkscape:label="Layer 1"
     transform="translate(-188.12966,-217.10684)">
    <path
       style="fill:#808080;stroke:none;stroke-width:1px;stroke-linecap:butt;stroke-linejoin:miter;stroke-opacity:1"
       d="m 208.57143,217.14286 c 0.97701,1.10833 -6.19274,7.87917 -9.81161,21.04195 -1.7033,6.18143 -2.42248,13.78421 -0.7702,21.74932 1.37629,6.68482 4.51695,13.52727 9.4276,19.44315 2.6742,3.22161 5.71461,5.97118 8.9777,8.17394 6.26642,4.22056 13.0687,6.45699 19.3741,6.86624 8.40892,0.55615 15.3844,-1.93123 20.13443,-4.76281 6.09922,-3.61155 8.93327,-7.32981 9.81084,-6.79751 0.56682,0.3438 -0.075,5.37287 -6.46532,11.22575 -4.85449,4.42169 -13.02644,8.80504 -23.67187,8.93478 -7.9718,0.0911 -16.6566,-2.16414 -24.5732,-7.25477 -4.1456,-2.66105 -7.97038,-6.0171 -11.27827,-9.99195 -6.08258,-7.30898 -9.70148,-15.82563 -11.01249,-24.17884 -1.53675,-9.87918 0.13224,-18.88765 3.01911,-25.85937 6.4617,-15.58322 16.45109,-19.03013 16.83918,-18.58988 z"
       id="path4419"
       inkscape:connector-curvature="0"
       inkscape:path-effect="#path-effect4421;#path-effect4423;#path-effect4425"
       inkscape:original-d="m 208.57143,217.14286 c -0.41213,2.06064 -3.20411,19.09187 -5.71429,22.85714 -3.33442,5.00163 -18.20474,36.08097 -11.42857,42.85714 6.92479,6.92479 51.30069,17.2068 62.85714,11.42857 4.14133,-2.07066 9.7053,-9.70529 11.42858,-11.42857" />
    <path
       style="fill:#808080;stroke:none;stroke-width:1px;stroke-linecap:butt;stroke-linejoin:miter;stroke-opacity:1"
       d="m 265.71591,282.85814 c 0.91044,0.12931 1.62995,10.2304 -3.24279,26.37101 -2.72594,9.03915 -7.69445,19.39781 -10.4119,31.0762 -1.12352,4.82018 -1.86445,9.98836 -1.51958,15.05785 0.32771,4.71468 1.4956,9.54454 3.92526,13.585 2.20941,3.79016 5.60017,7.09209 9.63961,9.58824 0.58181,0.35944 1.17869,0.70086 1.78945,1.02449 3.58422,1.89922 7.54649,3.13315 11.54058,3.83573 9.9705,1.8137 20.63862,-0.0925 29.94037,-2.45568 8.20967,-2.16577 15.0821,-4.64735 21.09364,-8.10039 7.71984,-4.44941 12.87622,-9.65919 16.16597,-14.83149 5.45918,-8.50297 5.811,-15.18566 6.79205,-15.15196 0.32926,0.0113 2.94934,6.62771 -2.09023,17.6842 -2.93716,6.3826 -8.31413,13.25396 -16.76395,18.88251 -6.53855,4.36908 -14.08513,7.65774 -22.71668,10.26661 -9.80502,3.05497 -21.70529,5.38633 -34.04693,3.49535 -4.93007,-0.7795 -9.90812,-2.32444 -14.58469,-4.79325 -0.79629,-0.42037 -1.57971,-0.86536 -2.34897,-1.33508 -5.37105,-3.27909 -9.86122,-7.80637 -12.9465,-13.1738 -3.25815,-5.7973 -4.69756,-12.11755 -4.86603,-18.07993 -0.18687,-6.37381 0.88255,-12.39994 2.44081,-17.75353 3.04214,-10.43644 10.42026,-25.11908 12.9092,-31.00021 6.18942,-14.63721 8.08758,-24.36425 9.30131,-24.19187 z"
       id="path5232"
       inkscape:connector-curvature="0"
       inkscape:path-effect="#path-effect5234;#path-effect5236;#path-effect5238"
       inkscape:original-d="m 265.71591,282.85814 c 8.4519,-32.757 -23.28711,82.4278 -14.28734,91.42757 7.44422,7.44422 39.2238,2.08094 45.71429,8.57143 0.42412,0.42413 34.81106,8.04608 40,2.85715 11.43732,-11.43732 7.60297,-29.49166 14.28571,-42.85715" />
    <path
       style="fill:#808080;stroke:none;stroke-width:1px;stroke-linecap:butt;stroke-linejoin:miter;stroke-opacity:1"
       d="m 351.43842,342.85919 c 0.8251,0.11525 0.60799,4.06423 1.43795,10.9278 0.80955,6.6948 2.78236,16.77011 8.67312,27.05197 1e-5,0 1e-5,0 1e-5,0 5.55081,9.75141 14.47315,19.29748 27.00917,26.88515 0,0 0,1e-5 0,1e-5 10.44134,6.31448 22.68161,10.72323 36.39037,13.4881 1.78352,0.35022 3.58348,0.67139 5.39495,0.95704 11.83058,1.86558 23.04938,2.0408 33.44441,-0.16991 13.95456,-2.9822 25.27572,-9.81137 32.38635,-18.59566 5.68762,-6.93771 8.66131,-14.73243 9.91703,-21.44635 0,0 0,0 0,-10e-6 2.79327,-14.89591 -1.41818,-24.38095 -0.37749,-24.81447 0.0281,-0.0117 7.79755,7.58174 6.33611,25.59288 0,0 0,0 0,0 -0.62943,7.7175 -3.29736,16.96112 -9.52019,25.54481 -7.89668,10.77311 -20.69589,19.46795 -36.66681,23.10279 -11.806,2.69839 -24.32189,2.72676 -37.09158,0.68555 -1.95606,-0.31267 -3.89,-0.66939 -5.79756,-1.06347 -14.67038,-2.95775 -27.97852,-8.07369 -39.35108,-15.37303 0,0 0,-10e-6 0,-10e-6 -13.69134,-8.78033 -23.11847,-20.10294 -28.56578,-31.40162 0,0 0,-10e-6 0,-10e-6 -12.34705,-25.76935 -3.08943,-41.29759 -3.61898,-41.37156 z"
       id="path5240"
       inkscape:connector-curvature="0"
       inkscape:path-effect="#path-effect5242;#path-effect5244;#path-effect5246"
       inkscape:original-d="m 351.43842,342.85919 c 3.80624,-2.85782 7.16257,-6.4428 11.41872,-8.57348 2.55488,-1.279 0,5.71429 0,8.57143 0,10.23412 2.66908,31.61664 -2.85714,37.14286 -12.71272,12.71272 35.31423,39.08569 42.85714,42.85714 9.72324,4.86162 32.26975,2.85715 42.85715,2.85715 63.03518,0 60,-30.13531 60,-68.57143" />
    <path
       style="fill:#808080;stroke:none;stroke-width:1px;stroke-linecap:butt;stroke-linejoin:miter;stroke-opacity:1"
       d="m 506.09178,381.95733 c 0.61002,0.3629 -1.42817,4.34801 -2.91696,11.82431 -1.42725,7.16719 -2.24887,19.0297 3.31529,30.82055 10e-6,0 10e-6,10e-6 10e-6,10e-6 4.65332,10.03484 13.82509,19.5534 26.81887,25.70557 10.87255,5.14177 23.66587,7.41003 37.60043,7.30751 6.53989,-0.0658 13.1989,-0.69357 19.89213,-1.91003 24.26917,-4.41079 44.90273,-15.71443 60.03987,-29.17525 16.8063,-14.93118 26.51231,-31.84236 32.06821,-43.94357 5.60533,-12.20889 7.58633,-19.91706 8.51894,-19.7293 0.70597,0.14213 0.74715,8.2532 -3.68168,21.62751 -4.36098,13.1694 -13.44037,31.78203 -30.93189,48.51576 -15.79223,15.09453 -37.8611,27.75743 -64.22783,32.5399 -7.26235,1.31727 -14.50263,1.96468 -21.62161,1.9763 -15.14777,0.0624 -29.39723,-2.87786 -41.64995,-9.03746 -14.74238,-7.40226 -24.71279,-19.0767 -29.46751,-31.03584 0,0 0,-1e-5 0,-1e-5 -5.56988,-14.23903 -3.24226,-27.32086 -0.51416,-34.75478 2.88284,-7.85556 6.3373,-10.98135 6.75784,-10.73118 z"
       id="path5264"
       inkscape:connector-curvature="0"
       inkscape:path-effect="#path-effect5266;#path-effect5268;#path-effect5270"
       inkscape:original-d="m 506.09178,381.95733 c 1.77893,-4.46196 0.87482,-15.16483 5.33679,-13.3859 1.01958,0.40649 -14.9125,70.80179 -5.71428,80 14.19504,14.19505 114.97158,22.17127 134.28571,2.85714 20.95378,-20.95378 29.75832,-81.34801 51.42857,-88.57143" />
    <path
       style="fill:#808080;stroke:none;stroke-width:1px;stroke-linecap:butt;stroke-linejoin:miter;stroke-opacity:1"
       d="m 691.39498,362.85378 c 0.84481,-0.22586 2.44574,4.08769 6.08113,11.24234 3.61544,7.11539 9.37856,17.15836 18.76092,27.37855 0,0 0,10e-6 0,10e-6 8.87603,9.65631 21.03908,19.46155 36.37456,25.95319 9.20177,3.88142 19.49238,6.6788 30.0768,6.93175 0.24812,0.006 0.49649,0.0104 0.74506,0.0136 10.36724,0.1319 20.27656,-2.09941 28.53566,-6.55289 13.35539,-7.11959 21.8446,-19.61051 25.2093,-31.22544 5.34871,-19.35732 -1.39006,-35.45009 -4.38099,-41.72123 0.12072,-1.31933 0.24627,-2.41666 0.38094,-3.31249 0,0 0,0 0,-10e-6 0.38158,-1.95107 0.73181,-2.98954 1.10735,-2.98969 0.36789,-1.5e-4 0.7426,1.03844 1.05793,3.02616 0,0 0,0 0,0 0.10681,0.73551 0.1891,1.58359 0.234,2.51711 4.83205,6.02955 14.53023,22.67322 9.32992,44.46186 -3.14792,13.79085 -12.37281,28.7754 -28.27797,37.72835 -9.81477,5.47429 -21.37033,8.27485 -33.34652,8.07082 -0.28705,-0.005 -0.57379,-0.0115 -0.86018,-0.0198 -12.19238,-0.35204 -23.66794,-3.56787 -33.67726,-8.08975 -16.77005,-7.55192 -29.52866,-18.76166 -38.38466,-29.74237 0,0 0,-10e-6 0,-10e-6 -19.36194,-23.97816 -19.42645,-43.54689 -18.96599,-43.66999 z"
       id="path5272"
       inkscape:connector-curvature="0"
       inkscape:path-effect="#path-effect5274;#path-effect5276;#path-effect5278"
       inkscape:original-d="m 691.39498,362.85378 c -3.38096,52.92969 52.11744,74.28908 100.03359,74.28908 5.4621,0 15.67233,2.16383 20,0 5.65271,-2.82636 1.05031,-6.91148 2.85714,-11.42857 11.50748,-28.76871 20,-44.54209 20,-77.14286" />
    <path
       style="fill:#808080;stroke:none;stroke-width:1px;stroke-linecap:butt;stroke-linejoin:miter;stroke-opacity:1"
       d="m 835.57764,354.1147 c 0.63447,0.14607 0.21968,3.10932 0.39677,8.4651 0.17114,5.17619 0.98998,13.25567 4.94053,21.78607 0,0 0,0 0,1e-5 4.15564,9.07455 11.68643,18.12409 23.21609,25.87437 9.26585,6.20841 19.9659,10.69885 32.64735,14.89616 0,0 10e-6,10e-6 10e-6,10e-6 15.45588,5.03971 32.98628,9.3471 50.74718,9.35461 1.53886,6.5e-4 3.07133,-0.0308 4.59747,-0.0954 19.92791,-0.86584 37.93703,-7.24284 50.75726,-18.25546 12.9893,-11.03303 19.9788,-25.77909 22.456,-38.64785 0,0 0,0 0,0 2.6828,-13.8694 0.4585,-25.98702 -1.6702,-33.63941 -2.1864,-7.85989 -4.2705,-12.06644 -3.6661,-12.42436 0.4596,-0.27215 3.8737,3.13671 7.3876,11.08338 3.3958,7.67976 7.0528,20.51244 5.0261,36.11156 0,0 0,1e-5 0,1e-5 -1.8931,14.47817 -8.9412,31.36328 -23.4784,44.43211 -14.44692,12.86234 -34.46632,20.49746 -56.40776,21.32738 -1.67022,0.0649 -3.34381,0.0941 -5.02055,0.0888 -19.40329,-0.0618 -37.87027,-4.76033 -53.771,-10.41238 0,0 -10e-6,0 -10e-6,0 -13.03662,-4.57133 -24.44198,-9.88476 -34.32577,-17.06988 -12.38437,-8.97563 -20.18269,-19.8676 -24.04677,-30.34732 0,0 0,0 0,0 -7.82422,-21.46454 0.81957,-32.38811 0.2142,-32.52748 z"
       id="path5288"
       inkscape:connector-curvature="0"
       inkscape:path-effect="#path-effect5290;#path-effect5292;#path-effect5294"
       inkscape:original-d="m 835.57764,354.1147 c 1.47412,-2.80014 1.62222,-9.87453 4.42236,-8.40041 2.80014,1.47412 -4.13586,5.24894 -4.42236,8.40041 -0.69656,7.66216 1.14686,15.34578 1.56522,23.02816 1.30497,23.96347 13.79609,33.79609 28.57143,48.57143 7.29056,7.29056 135.94341,5.25595 142.85711,-8.57143 4.9159,-9.83177 11.4286,-75.11747 11.4286,-85.71429" />
    <path
       style="fill:#808080;stroke:none;stroke-width:1px;stroke-linecap:butt;stroke-linejoin:miter;stroke-opacity:1"
       d="m 1020.0327,331.41633 c 0.9602,-0.7993 6.573,4.2687 15.3074,13.07536 0,0 0,10e-6 0,10e-6 5.9695,5.95411 16.0182,16.87049 26.7297,21.66905 4.6992,2.14402 10.0272,3.61883 15.3016,3.41082 2.5829,-0.10236 5.2124,-0.57155 7.6734,-1.44707 2.2734,-0.80884 4.3404,-1.94219 6.0738,-3.38749 4.3196,-3.38442 6.9331,-8.90189 8.1425,-14.2207 1.3569,-6.05077 0.819,-12.56349 -0.1021,-18.19733 -3.3491,-19.79669 -11.9151,-31.30175 -10.5876,-32.31898 0.6338,-0.48569 12.7225,8.22272 18.5278,30.60218 1.6293,6.1569 2.6865,13.69399 1.3917,21.66101 -1.1433,7.11616 -4.5942,14.63616 -11.0381,20.14266 -2.6895,2.20777 -5.7376,3.92763 -9.0075,5.12319 -3.5417,1.29497 -7.2289,1.93319 -10.8394,1.97698 -7.2876,0.0882 -14.0484,-1.92172 -19.7038,-4.87 -13.1369,-6.94599 -22.3001,-18.92948 -27.4622,-25.92446 0,0 0,0 0,0 -7.4609,-10.00039 -11.3414,-16.51757 -10.4072,-17.29523 z"
       id="path5296"
       inkscape:connector-curvature="0"
       inkscape:path-effect="#path-effect5298;#path-effect5300;#path-effect5302"
       inkscape:original-d="m 1020.0327,331.41633 c -0.9633,-0.9483 -3.8381,-1.88163 -2.8898,-2.8449 0.4501,-0.45727 17.1764,20.03354 20,22.85714 12.109,12.10907 35.9605,22.43843 57.1428,17.14286 2.5851,-0.64626 0.9891,-15.27476 2.8572,-17.14286 5.6433,-5.64336 -1.7123,2.27964 2.8571,-11.42857 8.5888,-25.76647 16.7133,-25.92907 -11.4286,-40" />
    <path
       style="fill:#808080;stroke:none;stroke-width:1px;stroke-linecap:butt;stroke-linejoin:miter;stroke-opacity:1"
       d="m 1088.6436,299.98084 c 1.2994,-0.52666 5.0796,8.06336 15.9983,14.80858 0,0 0,0 0,0 5.071,3.13864 11.798,5.6841 19.397,5.91678 5.5877,0.17077 11.6445,-0.9193 17.157,-3.65862 2.4895,-1.23381 4.88,-2.80546 7.0616,-4.68159 2.3171,-1.99267 4.3135,-4.25553 5.9201,-6.69071 5.4808,-8.2235 6.3218,-18.31148 4.3419,-26.06102 -3.4611,-13.10799 -13.6285,-20.04532 -16.939,-22.53711 -1.3377,-1.48231 -1.855,-2.41426 -1.5805,-2.79144 0.2739,-0.37631 1.3174,-0.17505 2.8961,0.46636 4.5407,0.84414 18.0533,6.17165 23.6048,22.41274 3.3942,9.75252 3.1189,22.64162 -4.0075,33.89375 -2.0872,3.27091 -4.6796,6.27502 -7.7099,8.88668 -2.8533,2.4591 -5.9888,4.47888 -9.2776,6.03351 -7.2857,3.43663 -15.0108,4.5241 -22.05,3.89109 -9.5624,-0.85933 -17.451,-4.7575 -22.999,-9.27529 0,0 0,-1e-5 0,-1e-5 -12.6488,-10.31488 -12.1681,-20.46988 -11.8133,-20.6137 z"
       id="path5352"
       inkscape:connector-curvature="0"
       inkscape:path-effect="#path-effect5354;#path-effect5356;#path-effect5358"
       inkscape:original-d="m 1088.6436,299.98084 c -9.1956,22.29115 56.0142,32.5042 65.6421,22.8763 10.9304,-10.9304 -2.4055,-62.63135 -14.2857,-68.57143" />
    <path
       style="fill:#ffd42a;stroke:none;stroke-width:1px;stroke-linecap:butt;stroke-linejoin:miter;stroke-opacity:1"
       d="m 355.0574,384.23076 c 0.75723,0.79484 -4.27807,6.37406 -12.06414,16.53 -7.80497,10.18059 -18.24126,24.90543 -27.55049,44.13501 -2.68238,5.6492 -5.39582,11.69836 -6.07154,17.66244 -0.34362,2.8524 -0.32638,5.74891 0.28336,8.44192 0.592,2.60472 1.66584,5.11684 3.27585,7.08347 1.92015,2.41135 4.78118,4.27101 7.87035,5.06112 0.76561,0.19944 1.55664,0.33476 2.3602,0.4063 2.40067,0.21372 4.86721,-0.14523 7.05488,-1.01154 3.00677,-1.1769 5.65431,-3.38666 7.39418,-6.03034 1.81428,-2.73596 2.74187,-6.0909 2.69777,-9.29305 0.14961,-5.52077 -3.24535,-11.47412 -6.33237,-17.11613 0,0 0,-1e-5 0,-1e-5 -3.8609,-6.48871 -7.44924,-12.9682 -8.4663,-20.73819 -0.95741,-9.8447 2.96374,-18.37565 7.0447,-24.11594 5.40285,-7.68494 13.39996,-14.38863 16.45356,-16.94593 3.54056,-2.9728 5.62244,-4.46252 6.05,-4.06914 0.41492,0.38177 -0.85771,2.61753 -3.6827,6.32498 -1.77679,2.33807 -9.94179,11.94204 -13.41271,18.12151 -2.95739,5.34905 -5.78019,12.71369 -4.45701,19.59302 0.81255,5.62913 4.24485,10.6072 8.21616,17.18784 0,0 10e-6,0 10e-6,10e-6 3.63425,5.57353 7.67486,12.78232 8.21538,21.49537 0.18315,5.12812 -1.16266,10.36644 -4.05179,14.90544 -2.8022,4.38174 -6.96109,7.91855 -11.96998,9.94276 -3.66163,1.46963 -7.66146,2.06829 -11.65093,1.70624 -1.33513,-0.12117 -2.66036,-0.34922 -3.96244,-0.68369 -5.25622,-1.3648 -9.87008,-4.42044 -13.15228,-8.57925 -2.64649,-3.40903 -4.30827,-7.30673 -5.08447,-11.237 -0.79796,-4.03064 -0.77942,-8.02904 -0.20716,-11.77105 1.23693,-7.80261 4.44618,-14.66098 7.55687,-20.41841 10.4488,-19.67564 22.33949,-34.19907 31.516,-43.58438 9.18606,-9.39509 15.52358,-13.63681 16.12704,-13.00338 z"
       id="path5448"
       inkscape:connector-curvature="0"
       inkscape:path-effect="#path-effect5450;#path-effect5452;#path-effect5454"
       inkscape:original-d="m 355.0574,384.23076 c -14.54294,19.54212 -29.08588,39.08425 -43.62883,58.62638 -2.85714,1.90476 -6.14332,3.28618 -8.57143,5.71429 -4.04061,4.04061 0,11.42857 0,17.14286 0,28.89546 39.2035,21.59301 42.85715,14.28571 2.9629,-5.9258 -1.53782,-14.7227 -2.85715,-20 -2.5797,-10.31881 -1.81565,-20.77416 -5.71428,-28.57143 -0.85184,-1.70367 -4.36742,1.34687 -5.71429,0 -12.98782,-12.98782 19.3934,-41.93477 23.62883,-47.19781" />
    <path
       style="fill:#ffcc00;stroke:none;stroke-width:1px;stroke-linecap:butt;stroke-linejoin:miter;stroke-opacity:1"
       d="m 451.42857,494.28571 c 0.56063,-0.42476 4.70382,2.41819 8.63739,10.23324 3.77134,7.49273 7.37644,20.48465 3.22494,35.32365 -2.43514,8.93706 -8.17577,18.77733 -18.31253,24.63563 -4.63891,2.62231 -10.11887,4.16752 -15.88026,4.04032 -1.7924,-0.0418 -3.591,-0.26052 -5.36396,-0.65934 -3.81688,-0.85857 -7.40539,-2.52636 -10.4958,-4.90889 -6.1508,-4.92376 -9.50733,-11.9376 -10.4325,-18.73841 -1.00892,-7.3805 0.34101,-14.35512 2.53566,-20.14891 5.37803,-14.34481 15.44917,-23.30161 22.41118,-27.79463 7.11809,-4.60532 11.90044,-5.51551 12.24731,-4.8398 0.48138,0.93771 -3.44727,3.43525 -9.14183,8.82082 -5.53822,5.2534 -13.61447,14.29692 -17.29258,26.60689 -1.46618,4.9827 -2.33978,10.60487 -1.33411,15.85132 0.91392,4.72638 3.26408,9.58504 7.08969,12.37078 1.8564,1.43997 4.14436,2.46316 6.60216,3.01052 1.14171,0.25426 2.30545,0.40242 3.46061,0.44502 3.74482,0.14488 7.56485,-0.90642 10.87618,-2.64927 7.32479,-3.7305 12.16816,-11.48856 14.75438,-18.62811 4.23126,-11.99224 2.45137,-23.58811 0.33543,-30.85703 -2.17765,-7.4809 -4.65989,-11.55426 -3.92136,-12.1138 z"
       id="path5456"
       inkscape:connector-curvature="0"
       inkscape:path-effect="#path-effect5458;#path-effect5460;#path-effect5462"
       inkscape:original-d="m 451.42857,494.28571 c 6.35514,11.60017 13.19904,28.97431 8.57143,42.85715 -2.20249,6.60745 -42.9431,28.48547 -51.42857,20 -8.91446,-8.91446 5.77088,-51.45687 11.42857,-54.28572 5.87957,-2.93978 16.06493,-7.4935 20,-11.42857" />
    <path
       style="fill:#ffcc00;stroke:none;stroke-width:1px;stroke-linecap:butt;stroke-linejoin:miter;stroke-opacity:1"
       d="m 601.49438,463.59004 c 0.62195,0.62746 -1.85763,3.56288 -5.00036,9.3946 -3.05627,5.67128 -6.95514,14.71925 -7.30054,25.89546 0,0 0,0 0,10e-6 -0.33926,10.5066 2.63497,23.20097 10.887,33.82416 3.65763,4.62814 8.22345,8.90549 13.58812,11.06889 2.9803,1.19722 6.30763,1.86086 9.50035,1.73064 2.21483,-0.0903 4.32,-0.56127 6.17394,-1.46132 4.247,-1.83768 7.57418,-5.9285 9.3872,-10.28688 1.96519,-4.71939 2.15523,-10.1864 1.41029,-15.2183 -1.56294,-11.21364 -9.55926,-22.99921 -14.3952,-30.86556 0,-10e-6 0,-10e-6 0,-10e-6 -10.01266,-16.03118 -15.42691,-26.33526 -14.33826,-27.06956 1.11861,-0.75452 8.53731,8.19167 19.99075,23.15467 1e-5,0 1e-5,0 1e-5,0 5.70499,7.34672 14.78886,19.03853 17.76498,33.16834 1.27947,6.29596 1.17148,13.44221 -1.37568,20.34655 -2.40774,6.51442 -7.2964,12.49753 -14.27273,15.82865 -3.13986,1.3997 -6.4711,2.17848 -9.84089,2.37076 -4.8616,0.27741 -9.65101,-0.67322 -13.89551,-2.54831 -7.44325,-3.28329 -13.19977,-8.70965 -17.34825,-14.46838 -9.53346,-13.04162 -12.16215,-28.01353 -10.85384,-40.12876 0,0 0,0 0,0 1.405,-12.86623 6.97519,-22.34403 11.36973,-27.73189 4.54106,-5.56748 8.11064,-7.4459 8.54889,-7.00376 z"
       id="path5480"
       inkscape:connector-curvature="0"
       inkscape:path-effect="#path-effect5482;#path-effect5484;#path-effect5486"
       inkscape:original-d="m 601.49438,463.59004 c 6.92846,33.35372 -26.44873,84.98139 15.64848,84.98139 2.23717,0 12.86006,1.42565 14.28571,0 1.21601,-1.21601 -1.89604,-61.89605 -2.85714,-62.85714 -7.70679,-7.70679 -12.06446,-10.40514 -17.16451,-25.11212" />
    <path
       style="fill:#ffcc00;stroke:none;stroke-width:1px;stroke-linecap:butt;stroke-linejoin:miter;stroke-opacity:1"
       d="m 722.85714,548.57143 c -0.0873,1.01452 -6.556,0.62159 -14.54166,5.42864 -3.55712,2.13735 -7.37403,5.49658 -10.05987,10.20164 -2.15347,3.76255 -3.5842,8.45074 -3.55375,13.42803 0.0208,4.36719 1.18628,9.0265 3.61938,13.12787 3.8479,6.62889 11.53301,11.88084 20.19308,13.10465 1.02306,0.14057 2.06263,0.22414 3.11134,0.25053 7.42943,0.18696 14.66251,-2.47151 19.54268,-7.00916 3.92402,-3.5799 6.56295,-8.31269 7.71701,-13.05146 1.32098,-5.3789 0.79466,-10.87734 -0.85098,-15.42649 -2.0425,-5.67523 -5.79247,-10.00564 -9.47586,-12.81483 -8.2258,-6.28878 -15.66794,-6.15798 -15.70137,-7.23942 -0.001,-0.0349 7.03451,-4.20996 18.84864,2.36157 4.93503,2.7513 10.22418,7.55935 13.51078,14.70782 2.63645,5.75342 3.84582,12.87158 2.44048,20.28133 -1.24915,6.53539 -4.52235,13.05038 -9.85112,18.20942 -6.79909,6.49314 -16.35877,10.27877 -26.45179,9.99036 -1.4236,-0.0407 -2.83971,-0.16275 -4.24045,-0.36529 -11.89087,-1.68537 -21.8014,-8.94736 -26.99699,-18.37882 -3.14561,-5.80536 -4.37788,-12.12132 -4.05441,-18.00303 0.37481,-6.69275 2.72259,-12.61059 5.94241,-17.19622 4.01956,-5.71392 9.24141,-9.23761 13.88067,-11.12609 11.01305,-4.47444 16.99044,-0.69795 16.97178,-0.48105 z"
       id="path5496"
       inkscape:connector-curvature="0"
       inkscape:path-effect="#path-effect5498;#path-effect5500;#path-effect5502"
       inkscape:original-d="m 722.85714,548.57143 c -2.85714,3.80952 -5.93,7.46643 -8.57143,11.42857 -2.10702,3.16054 -29.72042,34.4721 -17.14285,42.85714 5.0142,3.34281 39.90036,11.52821 45.71428,5.71429 8.78957,-8.78957 -17.52844,-50.11379 -20,-60 z" />
    <path
       style="fill:#ffcc00;stroke:none;stroke-width:1px;stroke-linecap:butt;stroke-linejoin:miter;stroke-opacity:1"
       d="m 797.82205,443.11266 c 0.5514,-0.26264 3.08812,2.36348 5.19912,8.5206 2.03121,5.92439 3.69648,15.85091 0.27422,27.15881 0,0 0,10e-6 0,10e-6 -2.18068,7.06003 -4.9669,11.59563 -8.01612,18.58901 -2.21266,5.37005 -4.27681,11.39976 -3.32617,16.67286 0.42121,2.80399 1.54743,5.6011 3.33914,7.80655 1.71135,2.11799 4.08667,3.83938 6.67749,4.63221 1.22266,0.3801 2.5307,0.57828 3.83404,0.57669 1.37877,-0.002 2.73217,-0.22689 3.957,-0.67986 2.43026,-0.87968 4.59631,-2.66803 5.76941,-4.78404 1.0193,-1.71369 1.47676,-3.90533 1.5429,-6.10538 0.0629,-2.297 -0.44279,-4.71722 -1.19998,-7.07903 -1.5263,-4.83469 -4.92708,-10.17628 -7.49806,-15.05005 -7.42639,-13.93166 -10.45908,-26.86631 -11.5283,-35.85713 -1.07839,-9.06788 -0.27622,-14.25324 0.53159,-14.3163 1.00826,-0.0787 1.9485,4.94765 4.39738,13.31877 2.4369,8.33019 6.47601,20.10916 14.08557,32.59336 2.67786,4.3481 6.49276,9.85937 8.89693,16.18415 1.15541,3.07211 1.93705,6.51842 1.99783,10.20987 0.0641,3.58461 -0.72054,7.36189 -2.59426,10.87734 -2.38336,4.31209 -6.27334,7.67248 -10.9881,9.39162 -2.3601,0.85097 -4.83882,1.28599 -7.32914,1.30007 -2.35431,0.0133 -4.68545,-0.34978 -6.9021,-1.06378 -4.64712,-1.50971 -8.58699,-4.39369 -11.41239,-8.05288 -2.91905,-3.79329 -4.61177,-8.22228 -5.12651,-12.66947 -0.80556,-8.34887 1.84313,-15.84872 4.84541,-21.65279 3.339,-6.74703 6.89455,-12.1477 8.921,-17.31185 0,0 0,0 0,0 3.68722,-9.20273 3.44484,-18.04647 2.75175,-23.72621 -0.71605,-5.86788 -1.88038,-9.11128 -1.09965,-9.48315 z"
       id="path5568"
       inkscape:connector-curvature="0"
       inkscape:path-effect="#path-effect5570;#path-effect5572;#path-effect5574"
       inkscape:original-d="m 797.82205,443.11266 c 24.85441,11.73226 -19.9916,63.28921 -9.25062,74.0302 4.23577,4.23577 12.7049,1.39812 20,2.85714 4.7619,0.95238 10.85185,6.291 14.28571,2.85714 1.02447,-1.02447 -21.16881,-56.7337 -25.47881,-79.65952" />
    <path
       style="fill:#ffcc00;stroke:none;stroke-width:1px;stroke-linecap:butt;stroke-linejoin:miter;stroke-opacity:1"
       d="m 922.85714,525.71429 c 1.07081,0.12223 1.17503,5.02942 1.96056,13.224 0.78702,8.21019 2.30834,19.67299 6.64268,32.55346 1.67562,4.79372 4.12922,11.04948 4.38867,18.14511 0.0964,3.43499 -0.54285,7.13168 -2.2491,10.67157 -1.67159,3.47345 -4.56986,6.51037 -8.49431,8.31359 -0.40711,0.16958 -0.81778,0.32294 -1.23126,0.46019 -4.35451,1.44541 -8.88333,1.06519 -12.70225,-0.69732 -4.26826,-1.9829 -7.49374,-5.19018 -9.57419,-8.7759 -4.27834,-7.65725 -4.58388,-15.90536 -4.29387,-22.24863 0.6779,-26.577 6.86034,-43.37776 8.41022,-43.07465 1.85591,0.36296 -0.65587,17.74603 0.36478,43.01529 0.37306,6.00576 0.7313,12.82806 3.81729,17.24056 1.38073,2.08273 3.21849,3.93045 5.29592,4.75464 1.76061,0.70569 3.88028,0.93757 5.46248,0.35611 0.15048,-0.0553 0.29571,-0.11786 0.43496,-0.18787 1.44543,-0.55182 2.74825,-2.00899 3.63613,-3.62186 0.93633,-1.71151 1.30412,-3.90919 1.36499,-6.14474 0.18247,-4.62997 -1.88672,-10.26571 -3.27998,-15.57905 -3.88489,-14.18168 -4.18273,-26.5977 -3.40722,-35.1774 0.7784,-8.61157 2.5534,-13.32984 3.4535,-13.2271 z"
       id="path5576"
       inkscape:connector-curvature="0"
       inkscape:path-effect="#path-effect5578;#path-effect5580;#path-effect5582"
       inkscape:original-d="m 922.85714,525.71429 c 0,27.47498 -0.70877,7.90678 2.85715,40 1.42395,12.81555 9.97621,24.35706 5.71428,37.14285 -1.53991,4.61974 -23.88631,-2.05834 -25.71428,-5.71428 -6.01277,-12.02552 -5.813,-51.23116 0,-62.85715" />
    <path
       style="fill:#ffcc00;stroke:none;stroke-width:1px;stroke-linecap:butt;stroke-linejoin:miter;stroke-opacity:1"
       d="m 996.92891,431.80677 c 0.0154,-0.089 10.84369,-2.64831 25.37079,8.51885 6.2638,4.81964 12.6441,12.24588 16.419,22.3208 3.0661,8.19816 4.2755,17.95218 2.3643,28.01066 -1.7118,8.97614 -5.891,17.92085 -12.5709,25.37049 -2.4988,2.85416 -5.5261,5.53489 -9.0955,7.63489 -1.6847,0.99115 -3.4729,1.8427 -5.3631,2.52198 -2.9982,1.04609 -6.219,1.52726 -9.4789,1.33422 -3.3381,-0.19819 -6.61889,-1.20256 -9.53227,-2.97987 -3.01565,-1.89281 -5.37414,-4.46255 -6.9975,-7.33607 -1.66211,-2.94288 -2.61729,-6.08858 -2.98416,-9.17825 -0.70935,-6.46697 0.67919,-12.4882 2.68076,-17.50432 0,-10e-6 0,-10e-6 0,-10e-6 2.03693,-5.22635 4.91846,-10.42851 6.8959,-14.42923 2.42826,-5.02135 4.17573,-9.24558 4.78319,-13.56902 0,0 0,-10e-6 0,-10e-6 0.79858,-5.29827 -0.10651,-10.22568 -1.54335,-14.03368 -3.25078,-8.63454 -8.44938,-12.20499 -7.93296,-12.97437 0.0758,-0.1129 6.86496,0.66959 12.52459,10.80597 2.3623,4.23694 4.2065,10.07727 3.8249,16.87258 0,0 0,10e-6 0,10e-6 -0.3488,5.46271 -1.9526,10.76597 -4.2796,16.24029 -1.9558,4.70747 -4.2867,9.34276 -5.87677,14.13392 0,0 0,0 0,0 -1.39187,4.33506 -2.39656,8.99995 -1.66444,13.18339 0.32187,1.99708 0.94596,3.9416 1.94839,5.56798 0.96831,1.57082 2.25955,2.96042 3.75072,3.8194 1.4076,0.86095 3.1759,1.34487 5.0033,1.45939 1.8024,0.11344 3.7292,-0.2133 5.6145,-0.85508 1.2063,-0.39098 2.3838,-0.94989 3.5346,-1.64446 2.4348,-1.46965 4.7066,-3.52132 6.7989,-5.74733 5.4652,-5.98894 9.0571,-13.28971 10.6686,-20.58994 1.8139,-8.18493 1.178,-16.38046 -0.997,-23.38135 -2.6711,-8.61987 -7.6037,-15.44692 -12.6089,-20.22112 -11.0087,-10.51168 -21.463,-12.16418 -21.25709,-13.35071 z"
       id="path5584"
       inkscape:connector-curvature="0"
       inkscape:path-effect="#path-effect5586;#path-effect5588;#path-effect5590"
       inkscape:original-d="m 996.92891,431.80677 c 1.62387,16.26674 50.99529,96.76466 14.49969,96.76466 -1.7436,0 -10.3153,1.11325 -11.4286,0 -8.1347,-8.1347 7.1074,-55.77384 2.8571,-65.71429 -3.96273,-9.26803 -8.60858,-18.22887 -12.91289,-27.34331" />
    <path
       style="fill:#ffcc00;stroke:none;stroke-width:1px;stroke-linecap:butt;stroke-linejoin:miter;stroke-opacity:1"
       d="m 534.28571,585.71429 c 0.5738,0.65307 -0.68962,2.56573 -2.50389,5.8581 -1.78735,3.24352 -4.19781,8.05645 -5.29579,14.07982 -1.05766,5.76169 -0.8938,12.75257 1.67625,19.57548 1.16717,2.82387 2.59633,5.6309 4.5001,7.41941 0.44947,0.42226 0.92255,0.78568 1.42285,1.08248 1.27655,0.82401 2.65609,1.37187 3.90758,1.43161 1.27391,0.067 2.57731,-0.20283 3.42039,-0.801 0.75636,-0.44554 1.43113,-1.30934 1.96426,-2.26839 0.56681,-1.0316 0.88822,-2.33337 1.08132,-3.68026 0.43798,-2.84148 -0.14761,-6.74184 -0.41516,-9.91029 0,0 0,0 0,-10e-6 -1.0674,-11.40721 0.34025,-18.44449 1.67067,-18.50125 1.54103,-0.0657 2.79145,6.79463 5.54861,17.23564 0,0 0,0 0,0 0.80301,2.92953 1.9591,7.08141 1.91851,11.74281 -0.0346,2.16032 -0.4334,4.51457 -1.3993,6.89248 -0.9189,2.27099 -2.47248,4.45847 -4.71985,6.21081 -2.76611,2.04236 -6.11861,3.08294 -9.541,2.925 -3.24568,-0.15564 -6.33172,-1.19253 -8.95143,-2.94879 -0.96592,-0.67419 -1.86536,-1.40868 -2.69947,-2.19452 -3.56061,-3.3546 -5.75092,-7.46945 -6.95544,-11.37593 -3.02851,-9.06044 -2.44165,-17.91261 -0.17792,-24.85942 5.06809,-15.5002 15.15273,-18.36446 15.54871,-17.91378 z"
       id="path5656"
       inkscape:connector-curvature="0"
       inkscape:path-effect="#path-effect5658;#path-effect5660;#path-effect5662"
       inkscape:original-d="m 534.28571,585.71429 c -6.48247,16.19622 -22.62115,51.42857 2.85715,51.42857 2.85714,0 7.29367,2.5555 8.57143,0 5.53693,-11.07386 0,-24.76191 0,-37.14286" />
  </g>
</svg>
